<svg xmlns="http://www.w3.org/2000/svg" xmlns:xlink="http://www.w3.org/1999/xlink" width="100" zoomAndPan="magnify" viewBox="0 0 75 74.999997" height="100" preserveAspectRatio="xMidYMid meet" version="1.0"><defs><clipPath id="344bd2d3aa"><path d="M 0 0.015625 L 36.460938 0.015625 L 36.460938 70.945312 L 0 70.945312 Z M 0 0.015625 " clip-rule="nonzero"/></clipPath><clipPath id="2d2f25e1dd"><path d="M 27.183594 1.730469 C 29.457031 1.851562 31.84375 2.675781 33.816406 4.554688 C 34.355469 5.066406 34.363281 5.378906 33.707031 5.847656 C 31.160156 7.660156 28.660156 9.53125 26.15625 11.402344 C 25.9375 11.570312 25.753906 11.652344 25.550781 11.652344 C 25.398438 11.652344 25.238281 11.605469 25.042969 11.511719 C 24.527344 11.265625 23.902344 11.246094 23.339844 11.070312 C 23.023438 10.972656 22.652344 10.820312 22.46875 10.570312 C 22.136719 10.121094 21.953125 9.566406 21.660156 9.085938 C 21.285156 8.476562 21.097656 7.917969 21.441406 7.183594 C 21.613281 6.8125 21.5625 6.207031 21.371094 5.832031 C 21.0625 5.226562 21.164062 4.773438 21.484375 4.257812 C 22.710938 2.277344 24.625 1.757812 27.183594 1.730469 Z M 17.472656 8.03125 C 17.988281 8.03125 18.503906 8.175781 19.011719 8.585938 C 19.300781 8.820312 19.59375 9.054688 19.820312 9.339844 C 20.023438 9.585938 20.121094 9.917969 20.296875 10.195312 C 20.914062 11.148438 21.351562 12 20.386719 13.105469 C 19.777344 13.804688 19.902344 14.824219 20.175781 15.765625 C 20.273438 16.101562 20.160156 16.660156 19.925781 16.914062 L 15.089844 21.941406 C 14.867188 22.179688 14.683594 22.300781 14.5 22.300781 C 14.328125 22.300781 14.152344 22.195312 13.941406 21.984375 C 13.394531 21.433594 12.90625 20.980469 12.890625 20.050781 C 12.878906 19.453125 12.351562 18.621094 11.816406 18.332031 C 10.878906 17.824219 10.734375 17.082031 10.652344 16.214844 C 10.621094 15.917969 10.601562 15.617188 10.570312 15.242188 C 10.441406 12.234375 12.261719 9.667969 15.390625 8.546875 C 16.082031 8.296875 16.78125 8.03125 17.472656 8.03125 Z M 34.59375 7.292969 L 34.59375 25.722656 C 33.613281 24.625 32.730469 23.648438 31.863281 22.664062 L 26.96875 17.074219 C 26.597656 16.65625 26.46875 16.335938 26.6875 15.742188 C 26.90625 15.136719 26.785156 14.414062 26.835938 13.746094 C 26.859375 13.472656 26.859375 13.089844 27.027344 12.960938 C 29.488281 11.085938 31.976562 9.242188 34.59375 7.292969 Z M 22.105469 17.746094 C 22.226562 18.042969 22.445312 18.34375 22.445312 18.648438 C 22.472656 21.507812 22.464844 24.375 22.464844 27.015625 C 21.898438 27.492188 21.433594 27.675781 21.019531 27.675781 C 20.410156 27.675781 19.917969 27.265625 19.417969 26.78125 C 18.433594 25.828125 17.386719 24.9375 16.339844 24.050781 C 15.957031 23.722656 15.917969 23.492188 16.289062 23.117188 L 21.207031 18.15625 C 21.425781 17.9375 21.800781 17.878906 22.105469 17.746094 Z M 25.023438 17.464844 C 28.039062 20.933594 30.910156 24.234375 33.894531 27.664062 C 31.210938 28.257812 28.746094 28.800781 26.28125 29.34375 L 26.160156 29.359375 C 25.71875 29.328125 23.949219 27.378906 23.960938 26.988281 C 24.046875 24.125 24.109375 21.257812 24.257812 18.398438 C 24.273438 18.074219 24.757812 17.773438 25.023438 17.464844 Z M 8.394531 22.042969 C 8.640625 22.042969 8.914062 22.117188 9.113281 22.226562 C 9.605469 22.496094 10.085938 22.710938 10.609375 22.710938 C 10.859375 22.710938 11.117188 22.664062 11.390625 22.542969 C 11.46875 22.511719 11.574219 22.492188 11.679688 22.492188 C 11.839844 22.492188 12.007812 22.53125 12.109375 22.605469 C 12.53125 22.917969 12.894531 23.316406 13.582031 23.957031 C 12.914062 24.480469 12.242188 24.898438 11.703125 25.445312 L 6.007812 31.386719 C 5.746094 31.664062 5.515625 31.835938 5.214844 31.835938 C 5.066406 31.835938 4.90625 31.796875 4.714844 31.703125 C 4.191406 31.457031 3.582031 31.40625 3.015625 31.269531 C 2.3125 27.050781 4.179688 23.652344 8.082031 22.097656 C 8.171875 22.058594 8.28125 22.042969 8.394531 22.042969 Z M 14.691406 25.144531 C 14.921875 25.144531 15.144531 25.292969 15.410156 25.535156 L 19.042969 28.714844 C 19.246094 28.898438 19.480469 29.34375 19.398438 29.484375 C 19.066406 30.03125 19.515625 30.949219 18.4375 31.171875 C 15.203125 31.832031 11.988281 32.589844 8.769531 33.308594 L 6.703125 33.734375 C 6.664062 33.667969 6.621094 33.605469 6.582031 33.539062 C 6.730469 33.308594 6.847656 33.042969 7.03125 32.847656 L 14.019531 25.535156 C 14.277344 25.261719 14.488281 25.144531 14.691406 25.144531 Z M 19.53125 32.707031 C 19.6875 32.84375 20.011719 33.019531 20.164062 33.292969 C 20.269531 33.488281 20.230469 33.863281 20.105469 34.070312 L 16.476562 39.914062 C 16.085938 40.527344 15.554688 40.839844 14.96875 40.839844 C 14.644531 40.839844 14.304688 40.742188 13.964844 40.554688 L 7.289062 36.761719 C 7.019531 36.605469 6.867188 36.253906 6.660156 35.996094 C 6.90625 35.808594 7.128906 35.511719 7.402344 35.449219 L 19.164062 32.765625 C 19.21875 32.753906 19.28125 32.746094 19.527344 32.707031 Z M 34.289062 29.378906 L 34.464844 29.398438 L 34.605469 42.078125 C 33.710938 41.128906 32.925781 40.296875 32.140625 39.460938 L 26.257812 33.203125 C 25.453125 32.34375 25.632812 31.421875 26.757812 31.136719 C 29.253906 30.496094 31.777344 29.953125 34.289062 29.375 Z M 24.226562 33.914062 C 24.625 33.914062 24.898438 34.253906 25.21875 34.609375 C 26.054688 35.542969 26.972656 36.398438 27.800781 37.335938 C 28.070312 37.644531 28.351562 38.117188 28.316406 38.488281 C 28.121094 40.710938 27.820312 42.925781 27.589844 45.148438 C 27.53125 45.742188 27.332031 46.089844 26.683594 46.09375 C 26.515625 46.097656 26.308594 46.160156 26.183594 46.269531 C 25.828125 46.589844 25.492188 46.710938 25.167969 46.710938 C 24.652344 46.710938 24.164062 46.410156 23.644531 46.097656 C 22.0625 45.148438 20.4375 44.269531 18.832031 43.355469 C 17.703125 42.710938 17.429688 41.636719 18.113281 40.53125 L 21.683594 34.761719 C 21.847656 34.503906 22.179688 34.355469 22.429688 34.160156 L 22.519531 34.273438 C 22.671875 34.273438 22.824219 34.28125 22.972656 34.28125 C 23.214844 34.28125 23.441406 34.257812 23.601562 34.148438 C 23.84375 33.980469 24.046875 33.914062 24.222656 33.914062 Z M 29.929688 39.53125 C 31.46875 41.183594 32.949219 42.664062 34.265625 44.269531 C 34.632812 44.71875 34.625 45.550781 34.632812 46.207031 C 34.667969 48.339844 34.636719 48.339844 32.492188 48.371094 C 32.269531 48.375 32.035156 48.414062 31.816406 48.414062 C 31.710938 48.414062 31.609375 48.40625 31.511719 48.378906 C 31.195312 48.296875 30.886719 48.09375 30.640625 47.871094 C 30.382812 47.636719 30.257812 47.226562 29.972656 47.046875 C 29.191406 46.554688 29.136719 45.90625 29.261719 45.070312 C 29.53125 43.28125 29.699219 41.476562 29.925781 39.53125 Z M 5.449219 37.839844 C 5.707031 37.839844 5.992188 37.980469 6.230469 38.117188 L 13.15625 42.035156 C 14.273438 42.671875 14.421875 43.257812 13.761719 44.359375 C 13.179688 45.328125 12.605469 46.3125 11.96875 47.246094 C 11.78125 47.523438 11.402344 47.6875 11.085938 47.855469 L 9.191406 48.75 C 8.953125 48.847656 8.65625 48.953125 8.402344 48.953125 C 8.320312 48.953125 8.246094 48.941406 8.179688 48.917969 C 4.757812 47.707031 2.765625 44.769531 2.851562 41.070312 C 2.859375 40.910156 2.878906 40.671875 2.894531 40.433594 C 3.027344 38.4375 3.464844 37.972656 5.402344 37.839844 C 5.417969 37.839844 5.433594 37.839844 5.449219 37.839844 Z M 16.679688 44.414062 C 17.105469 44.414062 17.582031 44.578125 18.136719 44.894531 L 23.492188 47.957031 C 23.761719 48.113281 24.003906 48.3125 24.261719 48.492188 L 24.222656 48.699219 C 23.085938 48.890625 21.96875 48.992188 20.851562 49.058594 L 14.324219 49.410156 C 14.296875 49.410156 14.265625 49.410156 14.234375 49.410156 C 13.875 49.410156 13.371094 49.332031 13.296875 49.148438 C 13.167969 48.847656 13.3125 48.355469 13.488281 48.019531 C 13.90625 47.230469 14.417969 46.492188 14.882812 45.730469 C 15.421875 44.84375 15.984375 44.414062 16.679688 44.414062 Z M 32.851562 50.046875 C 33.429688 50.046875 34.027344 50.066406 34.671875 50.066406 L 34.671875 61.417969 C 34.433594 61.117188 34.289062 60.988281 34.214844 60.832031 L 30.367188 52.691406 C 29.832031 51.5625 30.570312 50.160156 31.789062 50.078125 C 32.140625 50.054688 32.492188 50.046875 32.851562 50.046875 Z M 23.667969 50.535156 C 24.28125 50.535156 24.355469 51.027344 24.695312 51.320312 C 25.4375 51.960938 25.226562 52.519531 24.808594 53.226562 L 20.335938 60.863281 C 20.132812 61.207031 19.621094 61.371094 19.25 61.617188 L 17.796875 62.570312 C 17.589844 62.703125 17.332031 62.925781 17.140625 62.925781 C 17.121094 62.925781 17.101562 62.925781 17.085938 62.921875 C 14.3125 62.25 11.886719 61.078125 10.921875 58.105469 C 10.683594 57.375 10.609375 56.597656 10.460938 55.839844 L 10.914062 53.359375 C 10.960938 53.15625 11.199219 52.964844 11.394531 52.835938 C 11.9375 52.476562 12.640625 52.265625 13.03125 51.789062 C 13.445312 51.273438 13.875 51.113281 14.457031 51.082031 C 17.496094 50.910156 20.539062 50.761719 23.570312 50.539062 C 23.601562 50.539062 23.632812 50.535156 23.664062 50.535156 Z M 27.589844 52.828125 C 27.773438 52.828125 27.964844 52.855469 28.144531 52.871094 C 28.429688 52.898438 28.78125 53.25 28.921875 53.539062 L 34.210938 64.492188 C 34.59375 65.273438 34.511719 65.808594 33.90625 66.382812 C 31.871094 68.320312 29.386719 69.074219 26.996094 69.234375 C 24.667969 69.210938 22.863281 68.734375 21.625 67.019531 C 21.050781 66.226562 20.628906 65.386719 21.351562 64.410156 C 21.527344 64.175781 21.617188 63.746094 21.527344 63.480469 C 21.261719 62.660156 21.632812 62.050781 22.011719 61.398438 C 23.5625 58.742188 25.117188 56.09375 26.609375 53.40625 C 26.875 52.929688 27.226562 52.828125 27.589844 52.828125 Z M 26.394531 0.015625 C 24.101562 0.015625 22.042969 0.746094 20.523438 2.660156 C 19.820312 3.546875 19.1875 4.429688 18.277344 5.199219 C 17.390625 5.953125 16.558594 6.414062 15.492188 6.660156 C 15.03125 6.769531 14.589844 6.972656 14.152344 7.164062 C 10.285156 8.878906 8.332031 12.414062 8.976562 16.578125 C 9.121094 17.519531 9.410156 18.449219 8.484375 19.179688 C 8.382812 19.261719 8.390625 19.46875 8.300781 19.578125 C 8.054688 19.867188 7.832031 20.257812 7.511719 20.394531 C 2.910156 22.339844 0.65625 26.273438 1.242188 31.292969 C 1.289062 31.726562 1.105469 32.285156 0.839844 32.644531 C 0.292969 33.382812 0.00390625 34.195312 0 34.980469 L 0 35.011719 C 0.00390625 35.839844 0.328125 36.636719 0.996094 37.277344 C 1.488281 37.753906 1.550781 38.152344 1.417969 38.757812 C 0.949219 40.9375 1.023438 43.089844 1.878906 45.175781 C 2.972656 47.828125 5.046875 49.4375 7.609375 50.527344 C 9.085938 51.152344 9.453125 51.902344 9.125 53.4375 C 8.515625 56.296875 8.851562 58.964844 10.785156 61.285156 C 12.4375 63.269531 14.660156 64.175781 17.121094 64.683594 C 18.222656 64.910156 19.078125 65.421875 19.59375 66.597656 C 20.035156 67.597656 20.738281 68.59375 21.578125 69.285156 C 23.015625 70.472656 24.671875 70.957031 26.425781 70.960938 L 26.476562 70.960938 C 27.089844 70.960938 27.710938 70.898438 28.34375 70.789062 C 31.3125 70.277344 33.953125 69.125 35.804688 66.628906 C 36.152344 66.164062 36.402344 65.5 36.402344 64.925781 L 36.429688 35.53125 C 36.4375 35.53125 36.441406 35.53125 36.449219 35.53125 L 36.460938 6.40625 C 36.464844 5.488281 36.207031 4.726562 35.625 4.027344 C 33.34375 1.292969 30.308594 0.175781 26.878906 0.0234375 C 26.71875 0.0195312 26.554688 0.015625 26.394531 0.015625 Z M 26.394531 0.015625 " clip-rule="nonzero"/></clipPath><linearGradient x1="127.998001" gradientTransform="matrix(0.142429, 0, 0, 0.142429, 0.0000015, 0.013869)" y1="0.00362939" x2="127.998001" gradientUnits="userSpaceOnUse" y2="498.003578" id="732ae791de"><stop stop-opacity="1" stop-color="rgb(92.89856%, 74.899292%, 19.200134%)" offset="0"/><stop stop-opacity="1" stop-color="rgb(92.89093%, 74.713135%, 19.326782%)" offset="0.0078125"/><stop stop-opacity="1" stop-color="rgb(92.877197%, 74.342346%, 19.580078%)" offset="0.015625"/><stop stop-opacity="1" stop-color="rgb(92.861938%, 73.973083%, 19.8349%)" offset="0.0234375"/><stop stop-opacity="1" stop-color="rgb(92.84668%, 73.602295%, 20.089722%)" offset="0.03125"/><stop stop-opacity="1" stop-color="rgb(92.832947%, 73.233032%, 20.344543%)" offset="0.0390625"/><stop stop-opacity="1" stop-color="rgb(92.817688%, 72.862244%, 20.599365%)" offset="0.046875"/><stop stop-opacity="1" stop-color="rgb(92.802429%, 72.491455%, 20.854187%)" offset="0.0546875"/><stop stop-opacity="1" stop-color="rgb(92.78717%, 72.122192%, 21.109009%)" offset="0.0625"/><stop stop-opacity="1" stop-color="rgb(92.773438%, 71.751404%, 21.363831%)" offset="0.0703125"/><stop stop-opacity="1" stop-color="rgb(92.758179%, 71.380615%, 21.617126%)" offset="0.078125"/><stop stop-opacity="1" stop-color="rgb(92.74292%, 71.011353%, 21.871948%)" offset="0.0859375"/><stop stop-opacity="1" stop-color="rgb(92.727661%, 70.640564%, 22.12677%)" offset="0.09375"/><stop stop-opacity="1" stop-color="rgb(92.713928%, 70.271301%, 22.381592%)" offset="0.101562"/><stop stop-opacity="1" stop-color="rgb(92.698669%, 69.900513%, 22.636414%)" offset="0.109375"/><stop stop-opacity="1" stop-color="rgb(92.683411%, 69.529724%, 22.891235%)" offset="0.117188"/><stop stop-opacity="1" stop-color="rgb(92.669678%, 69.160461%, 23.146057%)" offset="0.125"/><stop stop-opacity="1" stop-color="rgb(92.654419%, 68.789673%, 23.400879%)" offset="0.132813"/><stop stop-opacity="1" stop-color="rgb(92.63916%, 68.418884%, 23.654175%)" offset="0.140625"/><stop stop-opacity="1" stop-color="rgb(92.623901%, 68.049622%, 23.908997%)" offset="0.148438"/><stop stop-opacity="1" stop-color="rgb(92.610168%, 67.678833%, 24.163818%)" offset="0.15625"/><stop stop-opacity="1" stop-color="rgb(92.59491%, 67.30957%, 24.41864%)" offset="0.164062"/><stop stop-opacity="1" stop-color="rgb(92.579651%, 66.938782%, 24.673462%)" offset="0.171875"/><stop stop-opacity="1" stop-color="rgb(92.564392%, 66.567993%, 24.928284%)" offset="0.179687"/><stop stop-opacity="1" stop-color="rgb(92.550659%, 66.19873%, 25.183105%)" offset="0.1875"/><stop stop-opacity="1" stop-color="rgb(92.5354%, 65.827942%, 25.436401%)" offset="0.195313"/><stop stop-opacity="1" stop-color="rgb(92.520142%, 65.457153%, 25.691223%)" offset="0.203125"/><stop stop-opacity="1" stop-color="rgb(92.506409%, 65.087891%, 25.946045%)" offset="0.210938"/><stop stop-opacity="1" stop-color="rgb(92.49115%, 64.717102%, 26.200867%)" offset="0.21875"/><stop stop-opacity="1" stop-color="rgb(92.475891%, 64.346313%, 26.455688%)" offset="0.226562"/><stop stop-opacity="1" stop-color="rgb(92.460632%, 63.977051%, 26.71051%)" offset="0.234375"/><stop stop-opacity="1" stop-color="rgb(92.446899%, 63.606262%, 26.965332%)" offset="0.242187"/><stop stop-opacity="1" stop-color="rgb(92.431641%, 63.237%, 27.220154%)" offset="0.25"/><stop stop-opacity="1" stop-color="rgb(92.416382%, 62.866211%, 27.47345%)" offset="0.257813"/><stop stop-opacity="1" stop-color="rgb(92.401123%, 62.495422%, 27.728271%)" offset="0.265625"/><stop stop-opacity="1" stop-color="rgb(92.38739%, 62.12616%, 27.983093%)" offset="0.273438"/><stop stop-opacity="1" stop-color="rgb(92.372131%, 61.755371%, 28.237915%)" offset="0.28125"/><stop stop-opacity="1" stop-color="rgb(92.356873%, 61.384583%, 28.492737%)" offset="0.289062"/><stop stop-opacity="1" stop-color="rgb(92.34314%, 61.01532%, 28.747559%)" offset="0.296875"/><stop stop-opacity="1" stop-color="rgb(92.327881%, 60.644531%, 29.00238%)" offset="0.304688"/><stop stop-opacity="1" stop-color="rgb(92.312622%, 60.275269%, 29.257202%)" offset="0.3125"/><stop stop-opacity="1" stop-color="rgb(92.297363%, 59.90448%, 29.510498%)" offset="0.320313"/><stop stop-opacity="1" stop-color="rgb(92.28363%, 59.533691%, 29.76532%)" offset="0.328125"/><stop stop-opacity="1" stop-color="rgb(92.268372%, 59.164429%, 30.020142%)" offset="0.335938"/><stop stop-opacity="1" stop-color="rgb(92.253113%, 58.79364%, 30.274963%)" offset="0.34375"/><stop stop-opacity="1" stop-color="rgb(92.23938%, 58.422852%, 30.529785%)" offset="0.351563"/><stop stop-opacity="1" stop-color="rgb(92.224121%, 58.053589%, 30.784607%)" offset="0.359375"/><stop stop-opacity="1" stop-color="rgb(92.208862%, 57.6828%, 31.039429%)" offset="0.367188"/><stop stop-opacity="1" stop-color="rgb(92.193604%, 57.313538%, 31.29425%)" offset="0.375"/><stop stop-opacity="1" stop-color="rgb(92.179871%, 56.942749%, 31.547546%)" offset="0.382813"/><stop stop-opacity="1" stop-color="rgb(92.164612%, 56.57196%, 31.802368%)" offset="0.390625"/><stop stop-opacity="1" stop-color="rgb(92.149353%, 56.202698%, 32.05719%)" offset="0.398438"/><stop stop-opacity="1" stop-color="rgb(92.134094%, 55.831909%, 32.312012%)" offset="0.40625"/><stop stop-opacity="1" stop-color="rgb(92.120361%, 55.461121%, 32.566833%)" offset="0.414062"/><stop stop-opacity="1" stop-color="rgb(92.105103%, 55.091858%, 32.821655%)" offset="0.421875"/><stop stop-opacity="1" stop-color="rgb(92.089844%, 54.721069%, 33.076477%)" offset="0.429688"/><stop stop-opacity="1" stop-color="rgb(92.076111%, 54.351807%, 33.329773%)" offset="0.4375"/><stop stop-opacity="1" stop-color="rgb(92.060852%, 53.981018%, 33.584595%)" offset="0.445313"/><stop stop-opacity="1" stop-color="rgb(92.045593%, 53.610229%, 33.839417%)" offset="0.453125"/><stop stop-opacity="1" stop-color="rgb(92.030334%, 53.240967%, 34.094238%)" offset="0.460938"/><stop stop-opacity="1" stop-color="rgb(92.016602%, 52.870178%, 34.34906%)" offset="0.46875"/><stop stop-opacity="1" stop-color="rgb(92.001343%, 52.49939%, 34.603882%)" offset="0.476563"/><stop stop-opacity="1" stop-color="rgb(91.986084%, 52.130127%, 34.858704%)" offset="0.484375"/><stop stop-opacity="1" stop-color="rgb(91.970825%, 51.759338%, 35.113525%)" offset="0.492188"/><stop stop-opacity="1" stop-color="rgb(91.957092%, 51.38855%, 35.366821%)" offset="0.5"/><stop stop-opacity="1" stop-color="rgb(91.941833%, 51.019287%, 35.621643%)" offset="0.507812"/><stop stop-opacity="1" stop-color="rgb(91.926575%, 50.648499%, 35.876465%)" offset="0.515625"/><stop stop-opacity="1" stop-color="rgb(91.912842%, 50.279236%, 36.131287%)" offset="0.523438"/><stop stop-opacity="1" stop-color="rgb(91.897583%, 49.908447%, 36.386108%)" offset="0.53125"/><stop stop-opacity="1" stop-color="rgb(91.882324%, 49.537659%, 36.64093%)" offset="0.539062"/><stop stop-opacity="1" stop-color="rgb(91.867065%, 49.168396%, 36.895752%)" offset="0.546875"/><stop stop-opacity="1" stop-color="rgb(91.853333%, 48.797607%, 37.150574%)" offset="0.554688"/><stop stop-opacity="1" stop-color="rgb(91.838074%, 48.426819%, 37.40387%)" offset="0.5625"/><stop stop-opacity="1" stop-color="rgb(91.822815%, 48.057556%, 37.658691%)" offset="0.570312"/><stop stop-opacity="1" stop-color="rgb(91.807556%, 47.686768%, 37.913513%)" offset="0.578125"/><stop stop-opacity="1" stop-color="rgb(91.793823%, 47.317505%, 38.168335%)" offset="0.585937"/><stop stop-opacity="1" stop-color="rgb(91.778564%, 46.946716%, 38.423157%)" offset="0.59375"/><stop stop-opacity="1" stop-color="rgb(91.763306%, 46.575928%, 38.677979%)" offset="0.601562"/><stop stop-opacity="1" stop-color="rgb(91.749573%, 46.206665%, 38.9328%)" offset="0.609375"/><stop stop-opacity="1" stop-color="rgb(91.734314%, 45.835876%, 39.187622%)" offset="0.617187"/><stop stop-opacity="1" stop-color="rgb(91.719055%, 45.465088%, 39.440918%)" offset="0.625"/><stop stop-opacity="1" stop-color="rgb(91.703796%, 45.095825%, 39.69574%)" offset="0.632813"/><stop stop-opacity="1" stop-color="rgb(91.690063%, 44.725037%, 39.950562%)" offset="0.640625"/><stop stop-opacity="1" stop-color="rgb(91.674805%, 44.355774%, 40.205383%)" offset="0.648438"/><stop stop-opacity="1" stop-color="rgb(91.659546%, 43.984985%, 40.460205%)" offset="0.65625"/><stop stop-opacity="1" stop-color="rgb(91.644287%, 43.614197%, 40.715027%)" offset="0.664063"/><stop stop-opacity="1" stop-color="rgb(91.630554%, 43.244934%, 40.969849%)" offset="0.671875"/><stop stop-opacity="1" stop-color="rgb(91.615295%, 42.874146%, 41.22467%)" offset="0.679688"/><stop stop-opacity="1" stop-color="rgb(91.600037%, 42.503357%, 41.477966%)" offset="0.6875"/><stop stop-opacity="1" stop-color="rgb(91.586304%, 42.134094%, 41.732788%)" offset="0.695312"/><stop stop-opacity="1" stop-color="rgb(91.571045%, 41.763306%, 41.98761%)" offset="0.703125"/><stop stop-opacity="1" stop-color="rgb(91.555786%, 41.392517%, 42.242432%)" offset="0.710938"/><stop stop-opacity="1" stop-color="rgb(91.540527%, 41.023254%, 42.497253%)" offset="0.71875"/><stop stop-opacity="1" stop-color="rgb(91.526794%, 40.652466%, 42.752075%)" offset="0.726562"/><stop stop-opacity="1" stop-color="rgb(91.511536%, 40.283203%, 43.006897%)" offset="0.734375"/><stop stop-opacity="1" stop-color="rgb(91.496277%, 39.912415%, 43.260193%)" offset="0.742188"/><stop stop-opacity="1" stop-color="rgb(91.481018%, 39.541626%, 43.515015%)" offset="0.75"/><stop stop-opacity="1" stop-color="rgb(91.467285%, 39.172363%, 43.769836%)" offset="0.757812"/><stop stop-opacity="1" stop-color="rgb(91.452026%, 38.801575%, 44.024658%)" offset="0.765625"/><stop stop-opacity="1" stop-color="rgb(91.436768%, 38.430786%, 44.27948%)" offset="0.773438"/><stop stop-opacity="1" stop-color="rgb(91.423035%, 38.061523%, 44.534302%)" offset="0.78125"/><stop stop-opacity="1" stop-color="rgb(91.407776%, 37.690735%, 44.789124%)" offset="0.789062"/><stop stop-opacity="1" stop-color="rgb(91.392517%, 37.321472%, 45.043945%)" offset="0.796875"/><stop stop-opacity="1" stop-color="rgb(91.377258%, 36.950684%, 45.297241%)" offset="0.804688"/><stop stop-opacity="1" stop-color="rgb(91.363525%, 36.579895%, 45.552063%)" offset="0.8125"/><stop stop-opacity="1" stop-color="rgb(91.348267%, 36.210632%, 45.806885%)" offset="0.820312"/><stop stop-opacity="1" stop-color="rgb(91.333008%, 35.839844%, 46.061707%)" offset="0.828125"/><stop stop-opacity="1" stop-color="rgb(91.319275%, 35.469055%, 46.316528%)" offset="0.835937"/><stop stop-opacity="1" stop-color="rgb(91.304016%, 35.099792%, 46.57135%)" offset="0.84375"/><stop stop-opacity="1" stop-color="rgb(91.288757%, 34.729004%, 46.826172%)" offset="0.851562"/><stop stop-opacity="1" stop-color="rgb(91.273499%, 34.359741%, 47.080994%)" offset="0.859375"/><stop stop-opacity="1" stop-color="rgb(91.259766%, 33.988953%, 47.33429%)" offset="0.867187"/><stop stop-opacity="1" stop-color="rgb(91.244507%, 33.618164%, 47.589111%)" offset="0.875"/><stop stop-opacity="1" stop-color="rgb(91.229248%, 33.248901%, 47.843933%)" offset="0.882813"/><stop stop-opacity="1" stop-color="rgb(91.213989%, 32.878113%, 48.098755%)" offset="0.890625"/><stop stop-opacity="1" stop-color="rgb(91.200256%, 32.507324%, 48.353577%)" offset="0.898438"/><stop stop-opacity="1" stop-color="rgb(91.184998%, 32.138062%, 48.608398%)" offset="0.90625"/><stop stop-opacity="1" stop-color="rgb(91.169739%, 31.767273%, 48.86322%)" offset="0.914063"/><stop stop-opacity="1" stop-color="rgb(91.156006%, 31.39801%, 49.118042%)" offset="0.921875"/><stop stop-opacity="1" stop-color="rgb(91.140747%, 31.027222%, 49.371338%)" offset="0.929688"/><stop stop-opacity="1" stop-color="rgb(91.125488%, 30.656433%, 49.62616%)" offset="0.9375"/><stop stop-opacity="1" stop-color="rgb(91.110229%, 30.28717%, 49.880981%)" offset="0.945312"/><stop stop-opacity="1" stop-color="rgb(91.096497%, 29.916382%, 50.135803%)" offset="0.953125"/><stop stop-opacity="1" stop-color="rgb(91.081238%, 29.545593%, 50.390625%)" offset="0.960938"/><stop stop-opacity="1" stop-color="rgb(91.065979%, 29.176331%, 50.645447%)" offset="0.96875"/><stop stop-opacity="1" stop-color="rgb(91.05072%, 28.805542%, 50.900269%)" offset="0.976562"/><stop stop-opacity="1" stop-color="rgb(91.036987%, 28.434753%, 51.153564%)" offset="0.984375"/><stop stop-opacity="1" stop-color="rgb(91.021729%, 28.065491%, 51.408386%)" offset="0.992188"/><stop stop-opacity="1" stop-color="rgb(91.00647%, 27.694702%, 51.663208%)" offset="1"/></linearGradient><clipPath id="1ca213a5ef"><path d="M 39.675781 0 L 75 0 L 75 70.863281 L 39.675781 70.863281 Z M 39.675781 0 " clip-rule="nonzero"/></clipPath><clipPath id="af083fa8fb"><path d="M 50.304688 1.707031 C 52.269531 1.707031 54.367188 3.050781 55.058594 4.941406 C 55.3125 5.636719 55.453125 6.375 55.59375 7.109375 C 55.710938 7.738281 55.96875 8.050781 56.515625 8.050781 C 56.628906 8.050781 56.757812 8.035156 56.898438 8.011719 C 57.378906 7.917969 57.851562 7.875 58.316406 7.875 C 62.851562 7.875 66.4375 12.078125 65.488281 16.789062 L 65.351562 17.398438 C 65.113281 19.035156 64.394531 20.257812 62.792969 20.984375 C 61.441406 21.59375 60.203125 22.453125 58.910156 23.199219 C 58.636719 23.355469 58.347656 23.496094 57.929688 23.710938 C 57.929688 21.996094 57.945312 20.425781 57.921875 18.859375 C 57.90625 17.78125 57.910156 16.855469 58.976562 16.054688 C 60.101562 15.210938 59.871094 13.519531 58.761719 12.507812 C 58.296875 12.082031 57.71875 11.875 57.132812 11.875 C 56.445312 11.875 55.753906 12.160156 55.230469 12.726562 C 54.292969 13.734375 54.304688 15.382812 55.425781 16.234375 C 56.15625 16.792969 56.304688 17.390625 56.292969 18.210938 L 56.332031 23.765625 C 56.34375 24.40625 56.148438 24.828125 55.578125 25.148438 C 53.964844 26.050781 52.382812 27.011719 50.753906 27.886719 C 50.585938 27.976562 50.363281 28.019531 50.132812 28.019531 C 49.929688 28.019531 49.726562 27.984375 49.558594 27.917969 C 49.152344 27.753906 48.757812 27.671875 48.375 27.671875 C 47.695312 27.671875 47.066406 27.941406 46.535156 28.511719 C 45.765625 29.324219 45.636719 30.4375 46.203125 31.378906 C 46.691406 32.199219 47.558594 32.691406 48.425781 32.691406 C 48.597656 32.691406 48.773438 32.671875 48.941406 32.632812 C 50.070312 32.363281 50.804688 31.457031 50.957031 30.289062 C 51 29.957031 51.210938 29.519531 51.480469 29.363281 L 65.179688 21.429688 C 65.355469 21.328125 65.59375 21.261719 65.8125 21.261719 C 65.886719 21.261719 65.964844 21.269531 66.03125 21.289062 C 68.4375 21.953125 70.625 22.992188 72.105469 25.125 C 72.839844 26.179688 72.785156 26.394531 71.667969 27.03125 C 69.800781 28.085938 67.949219 29.171875 66.058594 30.179688 C 65.226562 30.625 64.847656 31.171875 64.882812 32.144531 C 64.945312 34.144531 64.925781 36.148438 64.871094 38.148438 C 64.859375 38.511719 64.605469 38.980469 64.3125 39.199219 C 63.09375 40.113281 62.832031 41.714844 63.789062 42.90625 C 64.285156 43.519531 64.976562 43.832031 65.679688 43.832031 C 66.296875 43.832031 66.917969 43.59375 67.429688 43.105469 C 68.597656 41.988281 68.628906 40.40625 67.332031 39.460938 C 66.59375 38.925781 66.503906 38.34375 66.519531 37.574219 L 66.542969 32.558594 C 66.550781 32.222656 66.699219 31.730469 66.945312 31.582031 C 68.960938 30.371094 71.011719 29.226562 73.15625 27.996094 C 73.496094 29.523438 73.472656 31.027344 72.972656 32.378906 C 72.203125 34.46875 72.230469 36.394531 72.929688 38.515625 C 73.375 39.871094 73.390625 41.492188 73.167969 42.925781 C 72.640625 46.296875 69.53125 49.125 66.097656 49.628906 C 66.058594 49.632812 66.019531 49.636719 65.976562 49.636719 C 65.714844 49.636719 65.414062 49.523438 65.179688 49.390625 L 58.1875 45.40625 C 57.523438 45.035156 57.195312 44.621094 57.222656 43.800781 C 57.296875 41.832031 57.265625 39.855469 57.238281 37.882812 C 57.230469 37.246094 57.355469 36.796875 57.925781 36.386719 C 58.933594 35.660156 59.203125 34.472656 58.746094 33.453125 C 58.320312 32.5 57.382812 31.890625 56.390625 31.890625 C 56.285156 31.890625 56.175781 31.898438 56.066406 31.914062 C 54.960938 32.0625 54.089844 32.9375 53.921875 34.121094 C 53.785156 35.097656 54.15625 35.917969 54.949219 36.449219 C 55.484375 36.808594 55.585938 37.222656 55.582031 37.796875 C 55.570312 40.007812 55.625 42.21875 55.574219 44.429688 C 55.554688 45.316406 55.847656 45.875 56.621094 46.300781 C 58.789062 47.5 60.90625 48.78125 63.085938 49.957031 C 64.09375 50.503906 64.757812 51.207031 65.054688 52.339844 C 65.632812 54.570312 66 56.777344 64.964844 58.988281 C 64.78125 59.378906 64.609375 59.597656 64.332031 59.597656 C 64.179688 59.597656 63.992188 59.53125 63.757812 59.390625 C 59.566406 56.929688 55.40625 54.402344 51.109375 52.132812 C 49.449219 51.253906 48.820312 50.28125 49.058594 48.472656 C 49.222656 47.238281 49.121094 45.964844 49.089844 44.710938 C 49.074219 44.152344 49.222656 43.796875 49.703125 43.449219 C 51.011719 42.5 51.199219 40.910156 50.207031 39.78125 C 49.6875 39.1875 49.011719 38.890625 48.324219 38.890625 C 47.65625 38.890625 46.972656 39.171875 46.414062 39.734375 C 45.386719 40.761719 45.527344 42.417969 46.824219 43.398438 C 47.382812 43.820312 47.515625 44.25 47.503906 44.898438 L 47.464844 50.8125 C 47.445312 51.550781 47.722656 51.945312 48.335938 52.296875 L 62.738281 60.636719 C 62.882812 60.722656 63.015625 60.832031 63.285156 61.023438 C 61.945312 62.152344 60.5 62.765625 58.878906 62.945312 C 58.582031 62.976562 58.28125 62.992188 57.980469 62.992188 C 57.535156 62.992188 57.085938 62.960938 56.644531 62.921875 C 56.578125 62.917969 56.511719 62.914062 56.449219 62.914062 C 55.984375 62.914062 55.710938 63.097656 55.648438 63.632812 L 55.5 64.425781 C 55.054688 67.28125 53.375 68.929688 50.523438 69.195312 C 50.15625 69.230469 49.789062 69.246094 49.425781 69.246094 C 46.972656 69.246094 44.730469 68.453125 42.71875 66.921875 C 41.75 66.183594 41.78125 65.9375 42.816406 65.398438 L 47.816406 62.796875 C 48.109375 62.644531 48.375 62.546875 48.660156 62.546875 C 48.890625 62.546875 49.128906 62.609375 49.398438 62.753906 C 49.769531 62.949219 50.15625 63.042969 50.53125 63.042969 C 51.519531 63.042969 52.4375 62.414062 52.859375 61.382812 C 53.386719 60.085938 52.605469 58.527344 51.214844 58.097656 C 50.972656 58.019531 50.726562 57.984375 50.484375 57.984375 C 49.355469 57.984375 48.304688 58.757812 48.097656 59.96875 C 47.953125 60.804688 47.515625 61.171875 46.847656 61.511719 C 45.054688 62.429688 43.28125 63.394531 41.410156 64.386719 L 41.410156 62.886719 C 41.414062 44.242188 41.429688 25.601562 41.402344 6.960938 C 41.398438 5.71875 41.8125 4.855469 42.722656 4.105469 C 44.058594 3.003906 45.570312 2.296875 47.378906 1.894531 C 47.402344 2.316406 47.425781 2.609375 47.429688 2.902344 L 47.480469 16.527344 C 47.484375 17.066406 47.382812 17.441406 46.859375 17.773438 C 45.828125 18.417969 45.554688 19.464844 45.925781 20.683594 C 46.195312 21.5625 47.222656 22.328125 48.15625 22.351562 C 48.175781 22.351562 48.195312 22.351562 48.210938 22.351562 C 49.320312 22.351562 50.390625 21.609375 50.722656 20.597656 C 51.046875 19.609375 50.714844 18.457031 49.773438 17.835938 C 49.183594 17.449219 49.050781 17.023438 49.054688 16.363281 L 49.121094 2.828125 C 49.121094 2.503906 49.121094 2.179688 49.121094 1.878906 C 49.496094 1.757812 49.894531 1.703125 50.296875 1.703125 Z M 49.238281 0 C 46.921875 0.0078125 44.734375 0.824219 42.652344 2.125 C 40.644531 3.382812 39.378906 5.078125 39.738281 7.613281 L 39.742188 8.152344 C 39.75 22.515625 39.761719 36.882812 39.765625 51.25 C 39.765625 55.492188 39.808594 59.734375 39.71875 63.972656 C 39.683594 65.695312 40.320312 66.96875 41.601562 68.003906 C 43.921875 69.882812 46.515625 70.863281 49.359375 70.863281 C 49.964844 70.863281 50.582031 70.816406 51.210938 70.730469 C 53.515625 70.398438 55.335938 69.199219 56.394531 67.050781 C 56.753906 66.320312 56.804688 65.25 57.363281 64.855469 C 57.984375 64.414062 59.039062 64.628906 59.882812 64.453125 C 64.277344 63.527344 68.175781 59.695312 67.117188 54.039062 C 66.9375 53.082031 66.6875 52.144531 66.457031 51.152344 L 67.417969 50.859375 C 71.507812 49.574219 74.261719 47.042969 74.898438 42.644531 C 74.964844 42.1875 74.996094 41.730469 75 41.28125 L 75 41.1875 C 74.992188 39.675781 74.65625 38.191406 74.144531 36.75 C 73.84375 35.886719 73.867188 35.089844 74.136719 34.222656 C 74.460938 33.175781 74.757812 32.097656 74.886719 31.011719 C 75.292969 27.5625 74.335938 24.582031 71.621094 22.28125 C 70.109375 21.003906 68.335938 20.257812 66.347656 19.777344 L 66.625 18.890625 C 67.285156 16.898438 67.574219 14.882812 66.992188 12.820312 C 65.933594 9.070312 62.457031 6.492188 58.089844 6.269531 C 57.371094 6.234375 57.0625 6.039062 56.890625 5.316406 C 56.300781 2.859375 54.769531 1.214844 52.347656 0.472656 C 51.3125 0.152344 50.304688 0.00390625 49.320312 0 Z M 49.238281 0 " clip-rule="nonzero"/></clipPath><linearGradient x1="127.999001" gradientTransform="matrix(0.137983, 0, 0, 0.137983, 39.67646, -0.000947)" y1="0.00686319" x2="127.999001" gradientUnits="userSpaceOnUse" y2="513.561965" id="519ca07a9a"><stop stop-opacity="1" stop-color="rgb(5.499268%, 88.198853%, 90.99884%)" offset="0"/><stop stop-opacity="1" stop-color="rgb(5.49469%, 88.095093%, 90.995789%)" offset="0.0078125"/><stop stop-opacity="1" stop-color="rgb(5.485535%, 87.887573%, 90.989685%)" offset="0.015625"/><stop stop-opacity="1" stop-color="rgb(5.476379%, 87.678528%, 90.983582%)" offset="0.0234375"/><stop stop-opacity="1" stop-color="rgb(5.465698%, 87.471008%, 90.977478%)" offset="0.03125"/><stop stop-opacity="1" stop-color="rgb(5.456543%, 87.263489%, 90.971375%)" offset="0.0390625"/><stop stop-opacity="1" stop-color="rgb(5.447388%, 87.055969%, 90.965271%)" offset="0.046875"/><stop stop-opacity="1" stop-color="rgb(5.438232%, 86.84845%, 90.959167%)" offset="0.0546875"/><stop stop-opacity="1" stop-color="rgb(5.429077%, 86.639404%, 90.951538%)" offset="0.0625"/><stop stop-opacity="1" stop-color="rgb(5.419922%, 86.431885%, 90.945435%)" offset="0.0703125"/><stop stop-opacity="1" stop-color="rgb(5.410767%, 86.224365%, 90.939331%)" offset="0.078125"/><stop stop-opacity="1" stop-color="rgb(5.400085%, 86.016846%, 90.933228%)" offset="0.0859375"/><stop stop-opacity="1" stop-color="rgb(5.39093%, 85.809326%, 90.927124%)" offset="0.09375"/><stop stop-opacity="1" stop-color="rgb(5.381775%, 85.601807%, 90.921021%)" offset="0.101562"/><stop stop-opacity="1" stop-color="rgb(5.37262%, 85.392761%, 90.914917%)" offset="0.109375"/><stop stop-opacity="1" stop-color="rgb(5.363464%, 85.185242%, 90.908813%)" offset="0.117188"/><stop stop-opacity="1" stop-color="rgb(5.354309%, 84.977722%, 90.90271%)" offset="0.125"/><stop stop-opacity="1" stop-color="rgb(5.345154%, 84.770203%, 90.896606%)" offset="0.132812"/><stop stop-opacity="1" stop-color="rgb(5.334473%, 84.562683%, 90.890503%)" offset="0.140625"/><stop stop-opacity="1" stop-color="rgb(5.325317%, 84.353638%, 90.882874%)" offset="0.148437"/><stop stop-opacity="1" stop-color="rgb(5.316162%, 84.146118%, 90.87677%)" offset="0.15625"/><stop stop-opacity="1" stop-color="rgb(5.307007%, 83.938599%, 90.870667%)" offset="0.164063"/><stop stop-opacity="1" stop-color="rgb(5.297852%, 83.731079%, 90.864563%)" offset="0.171875"/><stop stop-opacity="1" stop-color="rgb(5.288696%, 83.52356%, 90.858459%)" offset="0.179688"/><stop stop-opacity="1" stop-color="rgb(5.279541%, 83.314514%, 90.852356%)" offset="0.1875"/><stop stop-opacity="1" stop-color="rgb(5.26886%, 83.106995%, 90.846252%)" offset="0.195312"/><stop stop-opacity="1" stop-color="rgb(5.259705%, 82.899475%, 90.840149%)" offset="0.203125"/><stop stop-opacity="1" stop-color="rgb(5.250549%, 82.691956%, 90.834045%)" offset="0.210937"/><stop stop-opacity="1" stop-color="rgb(5.241394%, 82.484436%, 90.827942%)" offset="0.21875"/><stop stop-opacity="1" stop-color="rgb(5.232239%, 82.276917%, 90.820312%)" offset="0.226563"/><stop stop-opacity="1" stop-color="rgb(5.223083%, 82.067871%, 90.814209%)" offset="0.234375"/><stop stop-opacity="1" stop-color="rgb(5.213928%, 81.860352%, 90.808105%)" offset="0.242188"/><stop stop-opacity="1" stop-color="rgb(5.203247%, 81.652832%, 90.802002%)" offset="0.25"/><stop stop-opacity="1" stop-color="rgb(5.194092%, 81.445312%, 90.795898%)" offset="0.257812"/><stop stop-opacity="1" stop-color="rgb(5.184937%, 81.237793%, 90.789795%)" offset="0.265625"/><stop stop-opacity="1" stop-color="rgb(5.175781%, 81.028748%, 90.783691%)" offset="0.273438"/><stop stop-opacity="1" stop-color="rgb(5.166626%, 80.821228%, 90.777588%)" offset="0.28125"/><stop stop-opacity="1" stop-color="rgb(5.157471%, 80.613708%, 90.771484%)" offset="0.289062"/><stop stop-opacity="1" stop-color="rgb(5.148315%, 80.406189%, 90.765381%)" offset="0.296875"/><stop stop-opacity="1" stop-color="rgb(5.137634%, 80.198669%, 90.759277%)" offset="0.304687"/><stop stop-opacity="1" stop-color="rgb(5.128479%, 79.989624%, 90.751648%)" offset="0.3125"/><stop stop-opacity="1" stop-color="rgb(5.119324%, 79.782104%, 90.745544%)" offset="0.320313"/><stop stop-opacity="1" stop-color="rgb(5.110168%, 79.574585%, 90.739441%)" offset="0.328125"/><stop stop-opacity="1" stop-color="rgb(5.101013%, 79.367065%, 90.733337%)" offset="0.335938"/><stop stop-opacity="1" stop-color="rgb(5.091858%, 79.159546%, 90.727234%)" offset="0.34375"/><stop stop-opacity="1" stop-color="rgb(5.081177%, 78.9505%, 90.72113%)" offset="0.351562"/><stop stop-opacity="1" stop-color="rgb(5.072021%, 78.742981%, 90.715027%)" offset="0.359375"/><stop stop-opacity="1" stop-color="rgb(5.062866%, 78.535461%, 90.708923%)" offset="0.367188"/><stop stop-opacity="1" stop-color="rgb(5.053711%, 78.327942%, 90.70282%)" offset="0.375"/><stop stop-opacity="1" stop-color="rgb(5.044556%, 78.120422%, 90.696716%)" offset="0.382812"/><stop stop-opacity="1" stop-color="rgb(5.0354%, 77.912903%, 90.689087%)" offset="0.390625"/><stop stop-opacity="1" stop-color="rgb(5.026245%, 77.703857%, 90.682983%)" offset="0.398438"/><stop stop-opacity="1" stop-color="rgb(5.015564%, 77.496338%, 90.67688%)" offset="0.40625"/><stop stop-opacity="1" stop-color="rgb(5.006409%, 77.288818%, 90.670776%)" offset="0.414062"/><stop stop-opacity="1" stop-color="rgb(4.997253%, 77.081299%, 90.664673%)" offset="0.421875"/><stop stop-opacity="1" stop-color="rgb(4.988098%, 76.873779%, 90.658569%)" offset="0.429687"/><stop stop-opacity="1" stop-color="rgb(4.978943%, 76.664734%, 90.652466%)" offset="0.4375"/><stop stop-opacity="1" stop-color="rgb(4.969788%, 76.457214%, 90.646362%)" offset="0.445313"/><stop stop-opacity="1" stop-color="rgb(4.960632%, 76.249695%, 90.640259%)" offset="0.453125"/><stop stop-opacity="1" stop-color="rgb(4.949951%, 76.042175%, 90.634155%)" offset="0.460938"/><stop stop-opacity="1" stop-color="rgb(4.940796%, 75.834656%, 90.626526%)" offset="0.46875"/><stop stop-opacity="1" stop-color="rgb(4.931641%, 75.62561%, 90.620422%)" offset="0.476562"/><stop stop-opacity="1" stop-color="rgb(4.922485%, 75.418091%, 90.614319%)" offset="0.484375"/><stop stop-opacity="1" stop-color="rgb(4.91333%, 75.210571%, 90.608215%)" offset="0.492188"/><stop stop-opacity="1" stop-color="rgb(4.904175%, 75.003052%, 90.602112%)" offset="0.5"/><stop stop-opacity="1" stop-color="rgb(4.89502%, 74.795532%, 90.596008%)" offset="0.507812"/><stop stop-opacity="1" stop-color="rgb(4.884338%, 74.586487%, 90.589905%)" offset="0.515625"/><stop stop-opacity="1" stop-color="rgb(4.875183%, 74.378967%, 90.583801%)" offset="0.523438"/><stop stop-opacity="1" stop-color="rgb(4.866028%, 74.171448%, 90.577698%)" offset="0.53125"/><stop stop-opacity="1" stop-color="rgb(4.856873%, 73.963928%, 90.571594%)" offset="0.539062"/><stop stop-opacity="1" stop-color="rgb(4.847717%, 73.756409%, 90.565491%)" offset="0.546875"/><stop stop-opacity="1" stop-color="rgb(4.838562%, 73.548889%, 90.557861%)" offset="0.554688"/><stop stop-opacity="1" stop-color="rgb(4.829407%, 73.339844%, 90.551758%)" offset="0.5625"/><stop stop-opacity="1" stop-color="rgb(4.818726%, 73.132324%, 90.545654%)" offset="0.570312"/><stop stop-opacity="1" stop-color="rgb(4.80957%, 72.924805%, 90.539551%)" offset="0.578125"/><stop stop-opacity="1" stop-color="rgb(4.800415%, 72.717285%, 90.533447%)" offset="0.585937"/><stop stop-opacity="1" stop-color="rgb(4.79126%, 72.509766%, 90.527344%)" offset="0.59375"/><stop stop-opacity="1" stop-color="rgb(4.782104%, 72.30072%, 90.52124%)" offset="0.601562"/><stop stop-opacity="1" stop-color="rgb(4.772949%, 72.093201%, 90.515137%)" offset="0.609375"/><stop stop-opacity="1" stop-color="rgb(4.763794%, 71.885681%, 90.509033%)" offset="0.617187"/><stop stop-opacity="1" stop-color="rgb(4.753113%, 71.678162%, 90.50293%)" offset="0.625"/><stop stop-opacity="1" stop-color="rgb(4.743958%, 71.470642%, 90.4953%)" offset="0.632813"/><stop stop-opacity="1" stop-color="rgb(4.734802%, 71.261597%, 90.489197%)" offset="0.640625"/><stop stop-opacity="1" stop-color="rgb(4.725647%, 71.054077%, 90.483093%)" offset="0.648438"/><stop stop-opacity="1" stop-color="rgb(4.716492%, 70.846558%, 90.47699%)" offset="0.65625"/><stop stop-opacity="1" stop-color="rgb(4.707336%, 70.639038%, 90.470886%)" offset="0.664063"/><stop stop-opacity="1" stop-color="rgb(4.698181%, 70.431519%, 90.464783%)" offset="0.671875"/><stop stop-opacity="1" stop-color="rgb(4.6875%, 70.222473%, 90.458679%)" offset="0.679688"/><stop stop-opacity="1" stop-color="rgb(4.678345%, 70.014954%, 90.452576%)" offset="0.6875"/><stop stop-opacity="1" stop-color="rgb(4.669189%, 69.807434%, 90.446472%)" offset="0.695312"/><stop stop-opacity="1" stop-color="rgb(4.660034%, 69.599915%, 90.440369%)" offset="0.703125"/><stop stop-opacity="1" stop-color="rgb(4.650879%, 69.392395%, 90.434265%)" offset="0.710938"/><stop stop-opacity="1" stop-color="rgb(4.641724%, 69.184875%, 90.426636%)" offset="0.71875"/><stop stop-opacity="1" stop-color="rgb(4.632568%, 68.97583%, 90.420532%)" offset="0.726562"/><stop stop-opacity="1" stop-color="rgb(4.621887%, 68.768311%, 90.414429%)" offset="0.734375"/><stop stop-opacity="1" stop-color="rgb(4.612732%, 68.560791%, 90.408325%)" offset="0.742188"/><stop stop-opacity="1" stop-color="rgb(4.603577%, 68.353271%, 90.402222%)" offset="0.75"/><stop stop-opacity="1" stop-color="rgb(4.594421%, 68.145752%, 90.396118%)" offset="0.757812"/><stop stop-opacity="1" stop-color="rgb(4.585266%, 67.936707%, 90.390015%)" offset="0.765625"/><stop stop-opacity="1" stop-color="rgb(4.576111%, 67.729187%, 90.383911%)" offset="0.773438"/><stop stop-opacity="1" stop-color="rgb(4.566956%, 67.521667%, 90.377808%)" offset="0.78125"/><stop stop-opacity="1" stop-color="rgb(4.556274%, 67.314148%, 90.371704%)" offset="0.789062"/><stop stop-opacity="1" stop-color="rgb(4.547119%, 67.106628%, 90.364075%)" offset="0.796875"/><stop stop-opacity="1" stop-color="rgb(4.537964%, 66.897583%, 90.357971%)" offset="0.804688"/><stop stop-opacity="1" stop-color="rgb(4.528809%, 66.690063%, 90.351868%)" offset="0.8125"/><stop stop-opacity="1" stop-color="rgb(4.519653%, 66.482544%, 90.345764%)" offset="0.820312"/><stop stop-opacity="1" stop-color="rgb(4.510498%, 66.275024%, 90.339661%)" offset="0.828125"/><stop stop-opacity="1" stop-color="rgb(4.501343%, 66.067505%, 90.333557%)" offset="0.835937"/><stop stop-opacity="1" stop-color="rgb(4.490662%, 65.858459%, 90.327454%)" offset="0.84375"/><stop stop-opacity="1" stop-color="rgb(4.481506%, 65.65094%, 90.32135%)" offset="0.851562"/><stop stop-opacity="1" stop-color="rgb(4.472351%, 65.44342%, 90.315247%)" offset="0.859375"/><stop stop-opacity="1" stop-color="rgb(4.463196%, 65.235901%, 90.309143%)" offset="0.867187"/><stop stop-opacity="1" stop-color="rgb(4.454041%, 65.028381%, 90.30304%)" offset="0.875"/><stop stop-opacity="1" stop-color="rgb(4.444885%, 64.820862%, 90.29541%)" offset="0.882813"/><stop stop-opacity="1" stop-color="rgb(4.43573%, 64.611816%, 90.289307%)" offset="0.890625"/><stop stop-opacity="1" stop-color="rgb(4.425049%, 64.404297%, 90.283203%)" offset="0.898438"/><stop stop-opacity="1" stop-color="rgb(4.415894%, 64.196777%, 90.2771%)" offset="0.90625"/><stop stop-opacity="1" stop-color="rgb(4.406738%, 63.989258%, 90.270996%)" offset="0.914063"/><stop stop-opacity="1" stop-color="rgb(4.397583%, 63.781738%, 90.264893%)" offset="0.921875"/><stop stop-opacity="1" stop-color="rgb(4.388428%, 63.572693%, 90.258789%)" offset="0.929688"/><stop stop-opacity="1" stop-color="rgb(4.379272%, 63.365173%, 90.252686%)" offset="0.9375"/><stop stop-opacity="1" stop-color="rgb(4.370117%, 63.157654%, 90.246582%)" offset="0.945312"/><stop stop-opacity="1" stop-color="rgb(4.359436%, 62.950134%, 90.240479%)" offset="0.953125"/><stop stop-opacity="1" stop-color="rgb(4.350281%, 62.742615%, 90.232849%)" offset="0.960938"/><stop stop-opacity="1" stop-color="rgb(4.341125%, 62.533569%, 90.226746%)" offset="0.96875"/><stop stop-opacity="1" stop-color="rgb(4.33197%, 62.32605%, 90.220642%)" offset="0.976562"/><stop stop-opacity="1" stop-color="rgb(4.322815%, 62.11853%, 90.214539%)" offset="0.984375"/><stop stop-opacity="1" stop-color="rgb(4.31366%, 61.911011%, 90.208435%)" offset="0.992188"/><stop stop-opacity="1" stop-color="rgb(4.304504%, 61.703491%, 90.202332%)" offset="1"/></linearGradient></defs><g clip-path="url(#344bd2d3aa)"><g clip-path="url(#2d2f25e1dd)"><path fill="url(#732ae791de)" d="M 0 0.015625 L 0 70.945312 L 36.460938 70.945312 L 36.460938 0.015625 Z M 0 0.015625 " fill-rule="nonzero"/></g></g><g clip-path="url(#1ca213a5ef)"><g clip-path="url(#af083fa8fb)"><path fill="url(#519ca07a9a)" d="M 39.675781 0 L 39.675781 70.863281 L 75 70.863281 L 75 0 Z M 39.675781 0 " fill-rule="nonzero"/></g></g></svg>