<svg xmlns="http://www.w3.org/2000/svg" xmlns:xlink="http://www.w3.org/1999/xlink" width="500" zoomAndPan="magnify" viewBox="0 0 375 149.999998" height="200" preserveAspectRatio="xMidYMid meet" version="1.0"><defs><g/><clipPath id="479782f24a"><path d="M 8.316406 15.023438 L 64.726562 15.023438 L 64.726562 124.761719 L 8.316406 124.761719 Z M 8.316406 15.023438 " clip-rule="nonzero"/></clipPath><clipPath id="851b6e184f"><path d="M 50.375 17.679688 C 53.894531 17.863281 57.582031 19.140625 60.636719 22.046875 C 61.46875 22.835938 61.480469 23.320312 60.464844 24.046875 C 56.527344 26.851562 52.65625 29.746094 48.785156 32.644531 C 48.445312 32.898438 48.160156 33.027344 47.847656 33.027344 C 47.613281 33.027344 47.363281 32.957031 47.066406 32.8125 C 46.261719 32.429688 45.296875 32.402344 44.429688 32.128906 C 43.9375 31.976562 43.363281 31.738281 43.078125 31.351562 C 42.5625 30.65625 42.28125 29.800781 41.828125 29.058594 C 41.25 28.113281 40.957031 27.25 41.488281 26.113281 C 41.753906 25.539062 41.675781 24.601562 41.378906 24.019531 C 40.90625 23.089844 41.058594 22.382812 41.554688 21.585938 C 43.453125 18.523438 46.414062 17.722656 50.375 17.679688 Z M 35.347656 27.421875 C 36.148438 27.421875 36.945312 27.652344 37.730469 28.285156 C 38.175781 28.644531 38.628906 29.011719 38.980469 29.449219 C 39.296875 29.832031 39.445312 30.347656 39.71875 30.769531 C 40.675781 32.246094 41.351562 33.566406 39.859375 35.277344 C 38.914062 36.359375 39.105469 37.933594 39.527344 39.390625 C 39.679688 39.914062 39.507812 40.777344 39.144531 41.167969 L 31.664062 48.945312 C 31.316406 49.316406 31.03125 49.503906 30.75 49.503906 C 30.484375 49.503906 30.214844 49.339844 29.882812 49.011719 C 29.039062 48.164062 28.285156 47.457031 28.257812 46.019531 C 28.238281 45.097656 27.425781 43.808594 26.601562 43.359375 C 25.148438 42.574219 24.925781 41.429688 24.796875 40.085938 C 24.75 39.625 24.71875 39.164062 24.671875 38.585938 C 24.46875 33.929688 27.289062 29.957031 32.125 28.222656 C 33.199219 27.835938 34.277344 27.425781 35.351562 27.425781 Z M 61.835938 26.28125 L 61.835938 54.792969 C 60.320312 53.097656 58.957031 51.589844 57.617188 50.0625 L 50.042969 41.414062 C 49.46875 40.769531 49.269531 40.277344 49.605469 39.355469 C 49.945312 38.421875 49.753906 37.300781 49.839844 36.265625 C 49.871094 35.847656 49.871094 35.25 50.128906 35.054688 C 53.9375 32.148438 57.789062 29.296875 61.835938 26.28125 Z M 42.519531 42.453125 C 42.703125 42.917969 43.042969 43.382812 43.046875 43.847656 C 43.085938 48.277344 43.070312 52.710938 43.070312 56.800781 C 42.199219 57.535156 41.476562 57.820312 40.839844 57.820312 C 39.890625 57.820312 39.136719 57.183594 38.359375 56.4375 C 36.839844 54.960938 35.214844 53.585938 33.597656 52.210938 C 33.003906 51.703125 32.941406 51.34375 33.519531 50.765625 L 41.125 43.089844 C 41.46875 42.753906 42.046875 42.660156 42.515625 42.453125 Z M 47.03125 42.019531 C 51.699219 47.386719 56.140625 52.496094 60.753906 57.804688 C 56.605469 58.71875 52.792969 59.5625 48.976562 60.398438 L 48.789062 60.421875 C 48.109375 60.378906 45.371094 57.355469 45.390625 56.757812 C 45.523438 52.324219 45.621094 47.890625 45.84375 43.464844 C 45.871094 42.960938 46.621094 42.5 47.03125 42.019531 Z M 21.304688 49.105469 C 21.6875 49.105469 22.109375 49.21875 22.414062 49.386719 C 23.179688 49.808594 23.925781 50.140625 24.726562 50.140625 C 25.117188 50.140625 25.515625 50.0625 25.941406 49.878906 C 26.0625 49.828125 26.222656 49.800781 26.386719 49.800781 C 26.632812 49.800781 26.890625 49.859375 27.050781 49.976562 C 27.707031 50.457031 28.269531 51.070312 29.332031 52.066406 C 28.296875 52.875 27.257812 53.519531 26.421875 54.371094 L 17.609375 63.558594 C 17.207031 63.988281 16.851562 64.257812 16.386719 64.257812 C 16.15625 64.257812 15.90625 64.195312 15.609375 64.050781 C 14.804688 63.667969 13.855469 63.589844 12.980469 63.378906 C 11.894531 56.851562 14.78125 51.59375 20.820312 49.1875 C 20.960938 49.128906 21.128906 49.105469 21.304688 49.105469 Z M 31.042969 53.902344 C 31.402344 53.902344 31.746094 54.132812 32.15625 54.503906 L 37.78125 59.429688 C 38.09375 59.710938 38.457031 60.398438 38.328125 60.617188 C 37.816406 61.464844 38.511719 62.886719 36.84375 63.226562 C 31.839844 64.246094 26.867188 65.421875 21.882812 66.53125 L 18.691406 67.191406 C 18.625 67.09375 18.5625 66.992188 18.5 66.890625 C 18.730469 66.53125 18.910156 66.121094 19.199219 65.820312 L 30.007812 54.503906 C 30.402344 54.085938 30.730469 53.902344 31.042969 53.902344 Z M 38.53125 65.601562 C 38.777344 65.8125 39.277344 66.085938 39.511719 66.507812 C 39.679688 66.808594 39.617188 67.390625 39.421875 67.710938 L 33.808594 76.757812 C 33.203125 77.703125 32.382812 78.183594 31.472656 78.183594 C 30.976562 78.183594 30.449219 78.039062 29.921875 77.742188 L 19.589844 71.875 C 19.179688 71.632812 18.941406 71.09375 18.621094 70.691406 C 19.003906 70.398438 19.34375 69.941406 19.773438 69.84375 L 37.964844 65.691406 C 38.054688 65.671875 38.148438 65.660156 38.53125 65.601562 Z M 61.367188 60.453125 L 61.636719 60.484375 L 61.855469 80.101562 C 60.472656 78.632812 59.257812 77.34375 58.046875 76.054688 L 48.941406 66.371094 C 47.699219 65.039062 47.976562 63.617188 49.714844 63.171875 C 53.578125 62.179688 57.480469 61.339844 61.367188 60.449219 Z M 45.800781 67.46875 C 46.414062 67.46875 46.839844 67.996094 47.335938 68.546875 C 48.628906 69.988281 50.050781 71.316406 51.328125 72.765625 C 51.746094 73.242188 52.179688 73.972656 52.125 74.546875 C 51.824219 77.988281 51.359375 81.414062 51.003906 84.851562 C 50.910156 85.769531 50.601562 86.308594 49.601562 86.316406 C 49.34375 86.320312 49.015625 86.414062 48.828125 86.585938 C 48.277344 87.082031 47.757812 87.269531 47.253906 87.269531 C 46.460938 87.269531 45.699219 86.800781 44.898438 86.324219 C 42.453125 84.851562 39.9375 83.492188 37.453125 82.078125 C 35.703125 81.082031 35.285156 79.417969 36.339844 77.707031 L 41.867188 68.78125 C 42.117188 68.386719 42.628906 68.15625 43.019531 67.851562 L 43.160156 68.023438 C 43.390625 68.027344 43.632812 68.039062 43.859375 68.039062 C 44.234375 68.039062 44.582031 68.003906 44.835938 67.832031 C 45.207031 67.574219 45.519531 67.46875 45.792969 67.46875 Z M 54.625 76.160156 C 57.003906 78.71875 59.292969 81.007812 61.332031 83.492188 C 61.902344 84.1875 61.882812 85.472656 61.898438 86.492188 C 61.953125 89.789062 61.90625 89.789062 58.585938 89.835938 C 58.242188 89.84375 57.882812 89.902344 57.542969 89.902344 C 57.378906 89.902344 57.222656 89.890625 57.070312 89.851562 C 56.582031 89.71875 56.105469 89.410156 55.722656 89.066406 C 55.320312 88.703125 55.128906 88.066406 54.691406 87.789062 C 53.476562 87.027344 53.398438 86.023438 53.589844 84.730469 C 54.007812 81.960938 54.269531 79.171875 54.617188 76.160156 Z M 16.75 73.542969 C 17.148438 73.542969 17.589844 73.761719 17.957031 73.972656 L 28.667969 80.039062 C 30.398438 81.023438 30.628906 81.929688 29.605469 83.628906 C 28.707031 85.132812 27.820312 86.648438 26.835938 88.097656 C 26.546875 88.523438 25.960938 88.78125 25.464844 89.039062 L 22.539062 90.425781 C 22.167969 90.574219 21.710938 90.734375 21.316406 90.734375 C 21.191406 90.734375 21.074219 90.71875 20.96875 90.683594 C 15.679688 88.808594 12.59375 84.265625 12.726562 78.542969 C 12.742188 78.292969 12.769531 77.925781 12.792969 77.554688 C 13 74.46875 13.675781 73.746094 16.675781 73.542969 C 16.699219 73.542969 16.722656 73.542969 16.746094 73.542969 Z M 34.121094 83.71875 C 34.78125 83.71875 35.519531 83.96875 36.375 84.457031 L 44.660156 89.199219 C 45.078125 89.441406 45.457031 89.746094 45.851562 90.027344 L 45.792969 90.347656 C 44.035156 90.640625 42.308594 90.800781 40.578125 90.902344 L 30.480469 91.441406 C 30.433594 91.445312 30.386719 91.445312 30.335938 91.445312 C 29.78125 91.445312 29.003906 91.324219 28.890625 91.039062 C 28.691406 90.574219 28.910156 89.8125 29.183594 89.296875 C 29.832031 88.074219 30.621094 86.933594 31.34375 85.75 C 32.179688 84.382812 33.042969 83.71875 34.121094 83.71875 Z M 59.144531 92.433594 C 60.039062 92.433594 60.960938 92.460938 61.957031 92.460938 L 61.957031 110.023438 C 61.585938 109.554688 61.367188 109.359375 61.253906 109.117188 L 55.296875 96.523438 C 54.472656 94.777344 55.617188 92.605469 57.5 92.480469 C 58.042969 92.445312 58.585938 92.433594 59.144531 92.433594 Z M 44.933594 93.1875 C 45.878906 93.1875 46 93.949219 46.519531 94.398438 C 47.671875 95.390625 47.347656 96.257812 46.699219 97.347656 L 39.78125 109.167969 C 39.460938 109.699219 38.675781 109.953125 38.101562 110.332031 L 35.855469 111.808594 C 35.53125 112.007812 35.132812 112.355469 34.832031 112.355469 C 34.804688 112.355469 34.777344 112.355469 34.753906 112.347656 C 30.460938 111.308594 26.707031 109.5 25.214844 104.898438 C 24.847656 103.769531 24.730469 102.5625 24.5 101.390625 L 25.203125 97.554688 C 25.273438 97.238281 25.644531 96.945312 25.941406 96.746094 C 26.785156 96.191406 27.875 95.859375 28.476562 95.125 C 29.121094 94.332031 29.78125 94.082031 30.6875 94.03125 C 35.386719 93.765625 40.09375 93.535156 44.785156 93.191406 C 44.835938 93.191406 44.882812 93.1875 44.925781 93.1875 Z M 51 96.730469 C 51.289062 96.730469 51.582031 96.773438 51.863281 96.796875 C 52.300781 96.839844 52.84375 97.382812 53.0625 97.835938 L 61.242188 114.78125 C 61.839844 115.988281 61.710938 116.8125 60.773438 117.707031 C 57.628906 120.707031 53.78125 121.871094 50.085938 122.113281 C 46.480469 122.082031 43.691406 121.34375 41.777344 118.691406 C 40.886719 117.460938 40.230469 116.164062 41.351562 114.648438 C 41.621094 114.289062 41.757812 113.625 41.625 113.214844 C 41.210938 111.941406 41.785156 111 42.375 109.992188 C 44.769531 105.886719 47.179688 101.785156 49.484375 97.628906 C 49.894531 96.894531 50.4375 96.730469 51 96.730469 Z M 49.152344 15.023438 C 45.601562 15.023438 42.417969 16.152344 40.070312 19.113281 C 38.980469 20.488281 38 21.851562 36.59375 23.042969 C 35.222656 24.207031 33.933594 24.925781 32.285156 25.308594 C 31.570312 25.472656 30.890625 25.785156 30.214844 26.082031 C 24.230469 28.738281 21.207031 34.203125 22.203125 40.652344 C 22.429688 42.105469 22.875 43.542969 21.441406 44.675781 C 21.285156 44.800781 21.300781 45.121094 21.160156 45.289062 C 20.777344 45.738281 20.433594 46.339844 19.933594 46.550781 C 12.820312 49.5625 9.328125 55.652344 10.234375 63.414062 C 10.3125 64.085938 10.027344 64.949219 9.613281 65.503906 C 8.769531 66.648438 8.320312 67.90625 8.316406 69.121094 L 8.316406 69.167969 C 8.320312 70.449219 8.820312 71.679688 9.855469 72.671875 C 10.621094 73.410156 10.714844 74.03125 10.511719 74.96875 C 9.785156 78.335938 9.898438 81.667969 11.226562 84.890625 C 12.914062 88.996094 16.125 91.488281 20.089844 93.171875 C 22.375 94.140625 22.941406 95.296875 22.433594 97.679688 C 21.492188 102.097656 22.011719 106.226562 25.003906 109.816406 C 27.558594 112.886719 31 114.292969 34.804688 115.074219 C 36.511719 115.425781 37.832031 116.21875 38.628906 118.035156 C 39.3125 119.582031 40.402344 121.125 41.699219 122.195312 C 43.929688 124.03125 46.492188 124.78125 49.203125 124.789062 L 49.277344 124.789062 C 50.226562 124.785156 51.191406 124.695312 52.167969 124.523438 C 56.757812 123.730469 60.847656 121.949219 63.710938 118.085938 C 64.246094 117.367188 64.636719 116.339844 64.640625 115.453125 L 64.679688 69.972656 C 64.6875 69.972656 64.695312 69.972656 64.707031 69.972656 L 64.726562 24.914062 C 64.730469 23.492188 64.335938 22.3125 63.433594 21.230469 C 59.90625 17 55.210938 15.269531 49.90625 15.039062 C 49.652344 15.027344 49.398438 15.023438 49.152344 15.023438 Z M 49.152344 15.023438 " clip-rule="nonzero"/></clipPath><linearGradient x1="127.998001" gradientTransform="matrix(0.220359, 0, 0, 0.220359, 8.316535, 15.021456)" y1="0.0036472" x2="127.998001" gradientUnits="userSpaceOnUse" y2="498.003592" id="eb34de49f6"><stop stop-opacity="1" stop-color="rgb(92.89856%, 74.899292%, 19.200134%)" offset="0"/><stop stop-opacity="1" stop-color="rgb(92.89093%, 74.713135%, 19.326782%)" offset="0.0078125"/><stop stop-opacity="1" stop-color="rgb(92.877197%, 74.342346%, 19.580078%)" offset="0.015625"/><stop stop-opacity="1" stop-color="rgb(92.861938%, 73.973083%, 19.8349%)" offset="0.0234375"/><stop stop-opacity="1" stop-color="rgb(92.84668%, 73.602295%, 20.089722%)" offset="0.03125"/><stop stop-opacity="1" stop-color="rgb(92.832947%, 73.233032%, 20.344543%)" offset="0.0390625"/><stop stop-opacity="1" stop-color="rgb(92.817688%, 72.862244%, 20.599365%)" offset="0.046875"/><stop stop-opacity="1" stop-color="rgb(92.802429%, 72.491455%, 20.854187%)" offset="0.0546875"/><stop stop-opacity="1" stop-color="rgb(92.78717%, 72.122192%, 21.109009%)" offset="0.0625"/><stop stop-opacity="1" stop-color="rgb(92.773438%, 71.751404%, 21.363831%)" offset="0.0703125"/><stop stop-opacity="1" stop-color="rgb(92.758179%, 71.380615%, 21.617126%)" offset="0.078125"/><stop stop-opacity="1" stop-color="rgb(92.74292%, 71.011353%, 21.871948%)" offset="0.0859375"/><stop stop-opacity="1" stop-color="rgb(92.727661%, 70.640564%, 22.12677%)" offset="0.09375"/><stop stop-opacity="1" stop-color="rgb(92.713928%, 70.271301%, 22.381592%)" offset="0.101562"/><stop stop-opacity="1" stop-color="rgb(92.698669%, 69.900513%, 22.636414%)" offset="0.109375"/><stop stop-opacity="1" stop-color="rgb(92.683411%, 69.529724%, 22.891235%)" offset="0.117188"/><stop stop-opacity="1" stop-color="rgb(92.669678%, 69.160461%, 23.146057%)" offset="0.125"/><stop stop-opacity="1" stop-color="rgb(92.654419%, 68.789673%, 23.400879%)" offset="0.132812"/><stop stop-opacity="1" stop-color="rgb(92.63916%, 68.418884%, 23.654175%)" offset="0.140625"/><stop stop-opacity="1" stop-color="rgb(92.623901%, 68.049622%, 23.908997%)" offset="0.148438"/><stop stop-opacity="1" stop-color="rgb(92.610168%, 67.678833%, 24.163818%)" offset="0.15625"/><stop stop-opacity="1" stop-color="rgb(92.59491%, 67.30957%, 24.41864%)" offset="0.164062"/><stop stop-opacity="1" stop-color="rgb(92.579651%, 66.938782%, 24.673462%)" offset="0.171875"/><stop stop-opacity="1" stop-color="rgb(92.564392%, 66.567993%, 24.928284%)" offset="0.179688"/><stop stop-opacity="1" stop-color="rgb(92.550659%, 66.19873%, 25.183105%)" offset="0.1875"/><stop stop-opacity="1" stop-color="rgb(92.5354%, 65.827942%, 25.436401%)" offset="0.195312"/><stop stop-opacity="1" stop-color="rgb(92.520142%, 65.457153%, 25.691223%)" offset="0.203125"/><stop stop-opacity="1" stop-color="rgb(92.506409%, 65.087891%, 25.946045%)" offset="0.210937"/><stop stop-opacity="1" stop-color="rgb(92.49115%, 64.717102%, 26.200867%)" offset="0.21875"/><stop stop-opacity="1" stop-color="rgb(92.475891%, 64.346313%, 26.455688%)" offset="0.226562"/><stop stop-opacity="1" stop-color="rgb(92.460632%, 63.977051%, 26.71051%)" offset="0.234375"/><stop stop-opacity="1" stop-color="rgb(92.446899%, 63.606262%, 26.965332%)" offset="0.242187"/><stop stop-opacity="1" stop-color="rgb(92.431641%, 63.237%, 27.220154%)" offset="0.25"/><stop stop-opacity="1" stop-color="rgb(92.416382%, 62.866211%, 27.47345%)" offset="0.257812"/><stop stop-opacity="1" stop-color="rgb(92.401123%, 62.495422%, 27.728271%)" offset="0.265625"/><stop stop-opacity="1" stop-color="rgb(92.38739%, 62.12616%, 27.983093%)" offset="0.273438"/><stop stop-opacity="1" stop-color="rgb(92.372131%, 61.755371%, 28.237915%)" offset="0.28125"/><stop stop-opacity="1" stop-color="rgb(92.356873%, 61.384583%, 28.492737%)" offset="0.289062"/><stop stop-opacity="1" stop-color="rgb(92.34314%, 61.01532%, 28.747559%)" offset="0.296875"/><stop stop-opacity="1" stop-color="rgb(92.327881%, 60.644531%, 29.00238%)" offset="0.304688"/><stop stop-opacity="1" stop-color="rgb(92.312622%, 60.275269%, 29.257202%)" offset="0.3125"/><stop stop-opacity="1" stop-color="rgb(92.297363%, 59.90448%, 29.510498%)" offset="0.320312"/><stop stop-opacity="1" stop-color="rgb(92.28363%, 59.533691%, 29.76532%)" offset="0.328125"/><stop stop-opacity="1" stop-color="rgb(92.268372%, 59.164429%, 30.020142%)" offset="0.335937"/><stop stop-opacity="1" stop-color="rgb(92.253113%, 58.79364%, 30.274963%)" offset="0.34375"/><stop stop-opacity="1" stop-color="rgb(92.23938%, 58.422852%, 30.529785%)" offset="0.351562"/><stop stop-opacity="1" stop-color="rgb(92.224121%, 58.053589%, 30.784607%)" offset="0.359375"/><stop stop-opacity="1" stop-color="rgb(92.208862%, 57.6828%, 31.039429%)" offset="0.367187"/><stop stop-opacity="1" stop-color="rgb(92.193604%, 57.313538%, 31.29425%)" offset="0.375"/><stop stop-opacity="1" stop-color="rgb(92.179871%, 56.942749%, 31.547546%)" offset="0.382812"/><stop stop-opacity="1" stop-color="rgb(92.164612%, 56.57196%, 31.802368%)" offset="0.390625"/><stop stop-opacity="1" stop-color="rgb(92.149353%, 56.202698%, 32.05719%)" offset="0.398437"/><stop stop-opacity="1" stop-color="rgb(92.134094%, 55.831909%, 32.312012%)" offset="0.40625"/><stop stop-opacity="1" stop-color="rgb(92.120361%, 55.461121%, 32.566833%)" offset="0.414062"/><stop stop-opacity="1" stop-color="rgb(92.105103%, 55.091858%, 32.821655%)" offset="0.421875"/><stop stop-opacity="1" stop-color="rgb(92.089844%, 54.721069%, 33.076477%)" offset="0.429688"/><stop stop-opacity="1" stop-color="rgb(92.076111%, 54.351807%, 33.329773%)" offset="0.4375"/><stop stop-opacity="1" stop-color="rgb(92.060852%, 53.981018%, 33.584595%)" offset="0.445312"/><stop stop-opacity="1" stop-color="rgb(92.045593%, 53.610229%, 33.839417%)" offset="0.453125"/><stop stop-opacity="1" stop-color="rgb(92.030334%, 53.240967%, 34.094238%)" offset="0.460937"/><stop stop-opacity="1" stop-color="rgb(92.016602%, 52.870178%, 34.34906%)" offset="0.46875"/><stop stop-opacity="1" stop-color="rgb(92.001343%, 52.49939%, 34.603882%)" offset="0.476562"/><stop stop-opacity="1" stop-color="rgb(91.986084%, 52.130127%, 34.858704%)" offset="0.484375"/><stop stop-opacity="1" stop-color="rgb(91.970825%, 51.759338%, 35.113525%)" offset="0.492187"/><stop stop-opacity="1" stop-color="rgb(91.957092%, 51.38855%, 35.366821%)" offset="0.5"/><stop stop-opacity="1" stop-color="rgb(91.941833%, 51.019287%, 35.621643%)" offset="0.507812"/><stop stop-opacity="1" stop-color="rgb(91.926575%, 50.648499%, 35.876465%)" offset="0.515625"/><stop stop-opacity="1" stop-color="rgb(91.912842%, 50.279236%, 36.131287%)" offset="0.523438"/><stop stop-opacity="1" stop-color="rgb(91.897583%, 49.908447%, 36.386108%)" offset="0.53125"/><stop stop-opacity="1" stop-color="rgb(91.882324%, 49.537659%, 36.64093%)" offset="0.539062"/><stop stop-opacity="1" stop-color="rgb(91.867065%, 49.168396%, 36.895752%)" offset="0.546875"/><stop stop-opacity="1" stop-color="rgb(91.853333%, 48.797607%, 37.150574%)" offset="0.554688"/><stop stop-opacity="1" stop-color="rgb(91.838074%, 48.426819%, 37.40387%)" offset="0.5625"/><stop stop-opacity="1" stop-color="rgb(91.822815%, 48.057556%, 37.658691%)" offset="0.570313"/><stop stop-opacity="1" stop-color="rgb(91.807556%, 47.686768%, 37.913513%)" offset="0.578125"/><stop stop-opacity="1" stop-color="rgb(91.793823%, 47.317505%, 38.168335%)" offset="0.585938"/><stop stop-opacity="1" stop-color="rgb(91.778564%, 46.946716%, 38.423157%)" offset="0.59375"/><stop stop-opacity="1" stop-color="rgb(91.763306%, 46.575928%, 38.677979%)" offset="0.601562"/><stop stop-opacity="1" stop-color="rgb(91.749573%, 46.206665%, 38.9328%)" offset="0.609375"/><stop stop-opacity="1" stop-color="rgb(91.734314%, 45.835876%, 39.187622%)" offset="0.617188"/><stop stop-opacity="1" stop-color="rgb(91.719055%, 45.465088%, 39.440918%)" offset="0.625"/><stop stop-opacity="1" stop-color="rgb(91.703796%, 45.095825%, 39.69574%)" offset="0.632812"/><stop stop-opacity="1" stop-color="rgb(91.690063%, 44.725037%, 39.950562%)" offset="0.640625"/><stop stop-opacity="1" stop-color="rgb(91.674805%, 44.355774%, 40.205383%)" offset="0.648438"/><stop stop-opacity="1" stop-color="rgb(91.659546%, 43.984985%, 40.460205%)" offset="0.65625"/><stop stop-opacity="1" stop-color="rgb(91.644287%, 43.614197%, 40.715027%)" offset="0.664063"/><stop stop-opacity="1" stop-color="rgb(91.630554%, 43.244934%, 40.969849%)" offset="0.671875"/><stop stop-opacity="1" stop-color="rgb(91.615295%, 42.874146%, 41.22467%)" offset="0.679688"/><stop stop-opacity="1" stop-color="rgb(91.600037%, 42.503357%, 41.477966%)" offset="0.6875"/><stop stop-opacity="1" stop-color="rgb(91.586304%, 42.134094%, 41.732788%)" offset="0.695312"/><stop stop-opacity="1" stop-color="rgb(91.571045%, 41.763306%, 41.98761%)" offset="0.703125"/><stop stop-opacity="1" stop-color="rgb(91.555786%, 41.392517%, 42.242432%)" offset="0.710938"/><stop stop-opacity="1" stop-color="rgb(91.540527%, 41.023254%, 42.497253%)" offset="0.71875"/><stop stop-opacity="1" stop-color="rgb(91.526794%, 40.652466%, 42.752075%)" offset="0.726562"/><stop stop-opacity="1" stop-color="rgb(91.511536%, 40.283203%, 43.006897%)" offset="0.734375"/><stop stop-opacity="1" stop-color="rgb(91.496277%, 39.912415%, 43.260193%)" offset="0.742188"/><stop stop-opacity="1" stop-color="rgb(91.481018%, 39.541626%, 43.515015%)" offset="0.75"/><stop stop-opacity="1" stop-color="rgb(91.467285%, 39.172363%, 43.769836%)" offset="0.757812"/><stop stop-opacity="1" stop-color="rgb(91.452026%, 38.801575%, 44.024658%)" offset="0.765625"/><stop stop-opacity="1" stop-color="rgb(91.436768%, 38.430786%, 44.27948%)" offset="0.773438"/><stop stop-opacity="1" stop-color="rgb(91.423035%, 38.061523%, 44.534302%)" offset="0.78125"/><stop stop-opacity="1" stop-color="rgb(91.407776%, 37.690735%, 44.789124%)" offset="0.789062"/><stop stop-opacity="1" stop-color="rgb(91.392517%, 37.321472%, 45.043945%)" offset="0.796875"/><stop stop-opacity="1" stop-color="rgb(91.377258%, 36.950684%, 45.297241%)" offset="0.804688"/><stop stop-opacity="1" stop-color="rgb(91.363525%, 36.579895%, 45.552063%)" offset="0.8125"/><stop stop-opacity="1" stop-color="rgb(91.348267%, 36.210632%, 45.806885%)" offset="0.820312"/><stop stop-opacity="1" stop-color="rgb(91.333008%, 35.839844%, 46.061707%)" offset="0.828125"/><stop stop-opacity="1" stop-color="rgb(91.319275%, 35.469055%, 46.316528%)" offset="0.835938"/><stop stop-opacity="1" stop-color="rgb(91.304016%, 35.099792%, 46.57135%)" offset="0.84375"/><stop stop-opacity="1" stop-color="rgb(91.288757%, 34.729004%, 46.826172%)" offset="0.851562"/><stop stop-opacity="1" stop-color="rgb(91.273499%, 34.359741%, 47.080994%)" offset="0.859375"/><stop stop-opacity="1" stop-color="rgb(91.259766%, 33.988953%, 47.33429%)" offset="0.867188"/><stop stop-opacity="1" stop-color="rgb(91.244507%, 33.618164%, 47.589111%)" offset="0.875"/><stop stop-opacity="1" stop-color="rgb(91.229248%, 33.248901%, 47.843933%)" offset="0.882812"/><stop stop-opacity="1" stop-color="rgb(91.213989%, 32.878113%, 48.098755%)" offset="0.890625"/><stop stop-opacity="1" stop-color="rgb(91.200256%, 32.507324%, 48.353577%)" offset="0.898438"/><stop stop-opacity="1" stop-color="rgb(91.184998%, 32.138062%, 48.608398%)" offset="0.90625"/><stop stop-opacity="1" stop-color="rgb(91.169739%, 31.767273%, 48.86322%)" offset="0.914063"/><stop stop-opacity="1" stop-color="rgb(91.156006%, 31.39801%, 49.118042%)" offset="0.921875"/><stop stop-opacity="1" stop-color="rgb(91.140747%, 31.027222%, 49.371338%)" offset="0.929688"/><stop stop-opacity="1" stop-color="rgb(91.125488%, 30.656433%, 49.62616%)" offset="0.9375"/><stop stop-opacity="1" stop-color="rgb(91.110229%, 30.28717%, 49.880981%)" offset="0.945312"/><stop stop-opacity="1" stop-color="rgb(91.096497%, 29.916382%, 50.135803%)" offset="0.953125"/><stop stop-opacity="1" stop-color="rgb(91.081238%, 29.545593%, 50.390625%)" offset="0.960938"/><stop stop-opacity="1" stop-color="rgb(91.065979%, 29.176331%, 50.645447%)" offset="0.96875"/><stop stop-opacity="1" stop-color="rgb(91.05072%, 28.805542%, 50.900269%)" offset="0.976562"/><stop stop-opacity="1" stop-color="rgb(91.036987%, 28.434753%, 51.153564%)" offset="0.984375"/><stop stop-opacity="1" stop-color="rgb(91.021729%, 28.065491%, 51.408386%)" offset="0.992188"/><stop stop-opacity="1" stop-color="rgb(91.00647%, 27.694702%, 51.663208%)" offset="1"/></linearGradient><clipPath id="42035aa5f6"><path d="M 69.703125 15 L 124.351562 15 L 124.351562 124.632812 L 69.703125 124.632812 Z M 69.703125 15 " clip-rule="nonzero"/></clipPath><clipPath id="e8ea4d6b19"><path d="M 86.144531 17.644531 C 89.1875 17.644531 92.429688 19.722656 93.5 22.644531 C 93.894531 23.71875 94.113281 24.867188 94.328125 25.996094 C 94.511719 26.972656 94.910156 27.457031 95.753906 27.457031 C 95.933594 27.457031 96.128906 27.433594 96.347656 27.394531 C 97.089844 27.25 97.824219 27.183594 98.542969 27.183594 C 105.554688 27.183594 111.109375 33.6875 109.636719 40.972656 L 109.425781 41.917969 C 109.058594 44.449219 107.945312 46.339844 105.464844 47.464844 C 103.375 48.410156 101.457031 49.742188 99.460938 50.890625 C 99.035156 51.136719 98.589844 51.347656 97.941406 51.6875 C 97.941406 49.03125 97.96875 46.601562 97.933594 44.179688 C 97.90625 42.507812 97.910156 41.082031 99.5625 39.839844 C 101.304688 38.53125 100.949219 35.917969 99.230469 34.351562 C 98.511719 33.695312 97.613281 33.371094 96.710938 33.371094 C 95.648438 33.371094 94.574219 33.816406 93.765625 34.691406 C 92.320312 36.25 92.335938 38.796875 94.070312 40.117188 C 95.199219 40.976562 95.429688 41.90625 95.410156 43.171875 L 95.46875 51.769531 C 95.492188 52.757812 95.191406 53.414062 94.304688 53.910156 C 91.804688 55.300781 89.363281 56.792969 86.84375 58.144531 C 86.582031 58.285156 86.234375 58.351562 85.882812 58.351562 C 85.566406 58.351562 85.25 58.296875 84.992188 58.195312 C 84.363281 57.941406 83.75 57.8125 83.164062 57.8125 C 82.109375 57.8125 81.136719 58.230469 80.3125 59.109375 C 79.125 60.371094 78.925781 62.09375 79.796875 63.550781 C 80.558594 64.816406 81.894531 65.582031 83.242188 65.582031 C 83.507812 65.582031 83.777344 65.550781 84.039062 65.488281 C 85.78125 65.070312 86.921875 63.667969 87.15625 61.863281 C 87.222656 61.347656 87.546875 60.671875 87.964844 60.425781 L 109.160156 48.152344 C 109.429688 48 109.800781 47.894531 110.136719 47.894531 C 110.257812 47.894531 110.371094 47.910156 110.476562 47.9375 C 114.199219 48.964844 117.582031 50.570312 119.875 53.871094 C 121.011719 55.507812 120.929688 55.835938 119.199219 56.820312 C 116.3125 58.457031 113.441406 60.132812 110.515625 61.695312 C 109.230469 62.378906 108.648438 63.230469 108.699219 64.734375 C 108.796875 67.828125 108.765625 70.929688 108.683594 74.023438 C 108.667969 74.585938 108.269531 75.3125 107.816406 75.648438 C 105.933594 77.0625 105.53125 79.539062 107.011719 81.382812 C 107.773438 82.335938 108.84375 82.816406 109.933594 82.816406 C 110.886719 82.816406 111.851562 82.445312 112.640625 81.691406 C 114.449219 79.964844 114.496094 77.515625 112.488281 76.050781 C 111.347656 75.222656 111.210938 74.324219 111.230469 73.132812 L 111.269531 65.375 C 111.28125 64.855469 111.511719 64.09375 111.894531 63.863281 C 115.007812 61.988281 118.179688 60.214844 121.5 58.316406 C 122.023438 60.679688 121.988281 63 121.214844 65.09375 C 120.023438 68.328125 120.070312 71.304688 121.148438 74.589844 C 121.839844 76.691406 121.863281 79.195312 121.515625 81.414062 C 120.703125 86.628906 115.894531 91 110.578125 91.785156 C 110.519531 91.792969 110.457031 91.796875 110.394531 91.796875 C 109.988281 91.796875 109.519531 91.621094 109.160156 91.417969 L 98.339844 85.25 C 97.3125 84.675781 96.804688 84.035156 96.851562 82.765625 C 96.960938 79.71875 96.917969 76.664062 96.875 73.613281 C 96.859375 72.625 97.054688 71.929688 97.9375 71.292969 C 99.496094 70.175781 99.914062 68.332031 99.207031 66.753906 C 98.546875 65.28125 97.097656 64.339844 95.5625 64.339844 C 95.398438 64.339844 95.230469 64.351562 95.0625 64.375 C 93.347656 64.605469 92 65.957031 91.742188 67.792969 C 91.527344 69.300781 92.101562 70.574219 93.332031 71.390625 C 94.160156 71.945312 94.320312 72.589844 94.3125 73.476562 C 94.289062 76.898438 94.378906 80.320312 94.300781 83.738281 C 94.265625 85.113281 94.722656 85.972656 95.917969 86.636719 C 99.269531 88.488281 102.550781 90.472656 105.917969 92.292969 C 107.480469 93.132812 108.507812 94.226562 108.964844 95.976562 C 109.859375 99.429688 110.429688 102.84375 108.824219 106.265625 C 108.542969 106.871094 108.277344 107.207031 107.847656 107.207031 C 107.609375 107.207031 107.324219 107.101562 106.957031 106.890625 C 100.472656 103.082031 94.035156 99.171875 87.394531 95.660156 C 84.820312 94.300781 83.847656 92.789062 84.21875 89.992188 C 84.472656 88.082031 84.316406 86.113281 84.265625 84.175781 C 84.246094 83.3125 84.472656 82.757812 85.210938 82.222656 C 87.242188 80.753906 87.527344 78.296875 85.996094 76.546875 C 85.191406 75.628906 84.148438 75.167969 83.082031 75.167969 C 82.046875 75.167969 80.992188 75.601562 80.125 76.472656 C 78.539062 78.066406 78.753906 80.625 80.757812 82.144531 C 81.625 82.796875 81.832031 83.464844 81.8125 84.464844 L 81.75 93.613281 C 81.71875 94.753906 82.152344 95.367188 83.097656 95.910156 L 105.378906 108.816406 C 105.605469 108.949219 105.808594 109.117188 106.226562 109.410156 C 104.15625 111.160156 101.917969 112.105469 99.410156 112.382812 C 98.949219 112.433594 98.488281 112.457031 98.023438 112.457031 C 97.332031 112.457031 96.636719 112.410156 95.957031 112.351562 C 95.851562 112.34375 95.746094 112.335938 95.648438 112.335938 C 94.933594 112.335938 94.511719 112.621094 94.414062 113.453125 L 94.1875 114.679688 C 93.492188 119.09375 90.894531 121.644531 86.484375 122.054688 C 85.914062 122.109375 85.347656 122.136719 84.789062 122.136719 C 80.992188 122.136719 77.519531 120.90625 74.410156 118.535156 C 72.910156 117.394531 72.957031 117.015625 74.5625 116.179688 L 82.292969 112.160156 C 82.75 111.921875 83.164062 111.769531 83.605469 111.769531 C 83.957031 111.769531 84.324219 111.867188 84.742188 112.089844 C 85.316406 112.394531 85.914062 112.539062 86.496094 112.539062 C 88.023438 112.539062 89.449219 111.5625 90.097656 109.96875 C 90.914062 107.960938 89.707031 105.550781 87.554688 104.882812 C 87.179688 104.769531 86.800781 104.710938 86.425781 104.710938 C 84.679688 104.710938 83.050781 105.90625 82.730469 107.78125 C 82.507812 109.074219 81.832031 109.644531 80.800781 110.171875 C 78.019531 111.589844 75.277344 113.082031 72.382812 114.613281 L 72.382812 112.296875 C 72.394531 83.453125 72.417969 54.609375 72.371094 25.765625 C 72.367188 23.847656 73.007812 22.511719 74.414062 21.351562 C 76.484375 19.648438 78.820312 18.554688 81.621094 17.929688 C 81.652344 18.582031 81.691406 19.039062 81.695312 19.492188 L 81.777344 40.570312 C 81.785156 41.40625 81.625 41.984375 80.8125 42.496094 C 79.222656 43.496094 78.792969 45.113281 79.371094 47 C 79.789062 48.363281 81.375 49.546875 82.824219 49.578125 C 82.851562 49.578125 82.878906 49.578125 82.90625 49.578125 C 84.621094 49.578125 86.277344 48.429688 86.789062 46.871094 C 87.296875 45.339844 86.78125 43.554688 85.320312 42.59375 C 84.414062 42 84.203125 41.335938 84.214844 40.316406 L 84.3125 19.375 C 84.316406 18.875 84.3125 18.371094 84.3125 17.902344 C 84.894531 17.722656 85.507812 17.636719 86.128906 17.636719 Z M 84.496094 15 C 80.910156 15.015625 77.53125 16.273438 74.304688 18.289062 C 71.199219 20.230469 69.242188 22.855469 69.796875 26.78125 L 69.804688 27.613281 C 69.816406 49.835938 69.832031 72.066406 69.839844 94.292969 C 69.839844 100.855469 69.90625 107.417969 69.769531 113.976562 C 69.714844 116.640625 70.699219 118.609375 72.679688 120.210938 C 76.265625 123.121094 80.285156 124.636719 84.6875 124.636719 C 85.621094 124.636719 86.574219 124.566406 87.546875 124.429688 C 91.113281 123.917969 93.929688 122.0625 95.566406 118.734375 C 96.125 117.605469 96.203125 115.949219 97.066406 115.339844 C 98.03125 114.660156 99.65625 114.992188 100.960938 114.714844 C 107.765625 113.289062 113.796875 107.359375 112.15625 98.605469 C 111.878906 97.128906 111.492188 95.675781 111.136719 94.140625 L 112.625 93.6875 C 118.953125 91.699219 123.210938 87.78125 124.195312 80.976562 C 124.300781 80.269531 124.347656 79.566406 124.351562 78.867188 L 124.351562 78.726562 C 124.339844 76.386719 123.820312 74.085938 123.03125 71.855469 C 122.5625 70.523438 122.601562 69.289062 123.015625 67.949219 C 123.515625 66.328125 123.980469 64.660156 124.179688 62.980469 C 124.808594 57.644531 123.328125 53.03125 119.125 49.472656 C 116.789062 47.496094 114.046875 46.34375 110.964844 45.597656 L 111.394531 44.230469 C 112.417969 41.148438 112.863281 38.023438 111.964844 34.835938 C 110.328125 29.035156 104.949219 25.042969 98.195312 24.703125 C 97.074219 24.648438 96.601562 24.34375 96.335938 23.222656 C 95.425781 19.421875 93.050781 16.878906 89.304688 15.730469 C 87.707031 15.234375 86.148438 15.003906 84.625 15 Z M 84.496094 15 " clip-rule="nonzero"/></clipPath><linearGradient x1="127.999001" gradientTransform="matrix(0.213481, 0, 0, 0.213481, 69.702234, 14.998537)" y1="0.00685952" x2="127.999001" gradientUnits="userSpaceOnUse" y2="513.561999" id="ba19860b97"><stop stop-opacity="1" stop-color="rgb(5.499268%, 88.198853%, 90.99884%)" offset="0"/><stop stop-opacity="1" stop-color="rgb(5.49469%, 88.095093%, 90.995789%)" offset="0.0078125"/><stop stop-opacity="1" stop-color="rgb(5.485535%, 87.887573%, 90.989685%)" offset="0.015625"/><stop stop-opacity="1" stop-color="rgb(5.476379%, 87.678528%, 90.983582%)" offset="0.0234375"/><stop stop-opacity="1" stop-color="rgb(5.465698%, 87.471008%, 90.977478%)" offset="0.03125"/><stop stop-opacity="1" stop-color="rgb(5.456543%, 87.263489%, 90.971375%)" offset="0.0390625"/><stop stop-opacity="1" stop-color="rgb(5.447388%, 87.055969%, 90.965271%)" offset="0.046875"/><stop stop-opacity="1" stop-color="rgb(5.438232%, 86.84845%, 90.959167%)" offset="0.0546875"/><stop stop-opacity="1" stop-color="rgb(5.429077%, 86.639404%, 90.951538%)" offset="0.0625"/><stop stop-opacity="1" stop-color="rgb(5.419922%, 86.431885%, 90.945435%)" offset="0.0703125"/><stop stop-opacity="1" stop-color="rgb(5.410767%, 86.224365%, 90.939331%)" offset="0.078125"/><stop stop-opacity="1" stop-color="rgb(5.400085%, 86.016846%, 90.933228%)" offset="0.0859375"/><stop stop-opacity="1" stop-color="rgb(5.39093%, 85.809326%, 90.927124%)" offset="0.09375"/><stop stop-opacity="1" stop-color="rgb(5.381775%, 85.601807%, 90.921021%)" offset="0.101563"/><stop stop-opacity="1" stop-color="rgb(5.37262%, 85.392761%, 90.914917%)" offset="0.109375"/><stop stop-opacity="1" stop-color="rgb(5.363464%, 85.185242%, 90.908813%)" offset="0.117188"/><stop stop-opacity="1" stop-color="rgb(5.354309%, 84.977722%, 90.90271%)" offset="0.125"/><stop stop-opacity="1" stop-color="rgb(5.345154%, 84.770203%, 90.896606%)" offset="0.132813"/><stop stop-opacity="1" stop-color="rgb(5.334473%, 84.562683%, 90.890503%)" offset="0.140625"/><stop stop-opacity="1" stop-color="rgb(5.325317%, 84.353638%, 90.882874%)" offset="0.148438"/><stop stop-opacity="1" stop-color="rgb(5.316162%, 84.146118%, 90.87677%)" offset="0.15625"/><stop stop-opacity="1" stop-color="rgb(5.307007%, 83.938599%, 90.870667%)" offset="0.164062"/><stop stop-opacity="1" stop-color="rgb(5.297852%, 83.731079%, 90.864563%)" offset="0.171875"/><stop stop-opacity="1" stop-color="rgb(5.288696%, 83.52356%, 90.858459%)" offset="0.179688"/><stop stop-opacity="1" stop-color="rgb(5.279541%, 83.314514%, 90.852356%)" offset="0.1875"/><stop stop-opacity="1" stop-color="rgb(5.26886%, 83.106995%, 90.846252%)" offset="0.195313"/><stop stop-opacity="1" stop-color="rgb(5.259705%, 82.899475%, 90.840149%)" offset="0.203125"/><stop stop-opacity="1" stop-color="rgb(5.250549%, 82.691956%, 90.834045%)" offset="0.210938"/><stop stop-opacity="1" stop-color="rgb(5.241394%, 82.484436%, 90.827942%)" offset="0.21875"/><stop stop-opacity="1" stop-color="rgb(5.232239%, 82.276917%, 90.820312%)" offset="0.226563"/><stop stop-opacity="1" stop-color="rgb(5.223083%, 82.067871%, 90.814209%)" offset="0.234375"/><stop stop-opacity="1" stop-color="rgb(5.213928%, 81.860352%, 90.808105%)" offset="0.242188"/><stop stop-opacity="1" stop-color="rgb(5.203247%, 81.652832%, 90.802002%)" offset="0.25"/><stop stop-opacity="1" stop-color="rgb(5.194092%, 81.445312%, 90.795898%)" offset="0.257812"/><stop stop-opacity="1" stop-color="rgb(5.184937%, 81.237793%, 90.789795%)" offset="0.265625"/><stop stop-opacity="1" stop-color="rgb(5.175781%, 81.028748%, 90.783691%)" offset="0.273438"/><stop stop-opacity="1" stop-color="rgb(5.166626%, 80.821228%, 90.777588%)" offset="0.28125"/><stop stop-opacity="1" stop-color="rgb(5.157471%, 80.613708%, 90.771484%)" offset="0.289062"/><stop stop-opacity="1" stop-color="rgb(5.148315%, 80.406189%, 90.765381%)" offset="0.296875"/><stop stop-opacity="1" stop-color="rgb(5.137634%, 80.198669%, 90.759277%)" offset="0.304688"/><stop stop-opacity="1" stop-color="rgb(5.128479%, 79.989624%, 90.751648%)" offset="0.3125"/><stop stop-opacity="1" stop-color="rgb(5.119324%, 79.782104%, 90.745544%)" offset="0.320312"/><stop stop-opacity="1" stop-color="rgb(5.110168%, 79.574585%, 90.739441%)" offset="0.328125"/><stop stop-opacity="1" stop-color="rgb(5.101013%, 79.367065%, 90.733337%)" offset="0.335938"/><stop stop-opacity="1" stop-color="rgb(5.091858%, 79.159546%, 90.727234%)" offset="0.34375"/><stop stop-opacity="1" stop-color="rgb(5.081177%, 78.9505%, 90.72113%)" offset="0.351562"/><stop stop-opacity="1" stop-color="rgb(5.072021%, 78.742981%, 90.715027%)" offset="0.359375"/><stop stop-opacity="1" stop-color="rgb(5.062866%, 78.535461%, 90.708923%)" offset="0.367188"/><stop stop-opacity="1" stop-color="rgb(5.053711%, 78.327942%, 90.70282%)" offset="0.375"/><stop stop-opacity="1" stop-color="rgb(5.044556%, 78.120422%, 90.696716%)" offset="0.382812"/><stop stop-opacity="1" stop-color="rgb(5.0354%, 77.912903%, 90.689087%)" offset="0.390625"/><stop stop-opacity="1" stop-color="rgb(5.026245%, 77.703857%, 90.682983%)" offset="0.398438"/><stop stop-opacity="1" stop-color="rgb(5.015564%, 77.496338%, 90.67688%)" offset="0.40625"/><stop stop-opacity="1" stop-color="rgb(5.006409%, 77.288818%, 90.670776%)" offset="0.414062"/><stop stop-opacity="1" stop-color="rgb(4.997253%, 77.081299%, 90.664673%)" offset="0.421875"/><stop stop-opacity="1" stop-color="rgb(4.988098%, 76.873779%, 90.658569%)" offset="0.429688"/><stop stop-opacity="1" stop-color="rgb(4.978943%, 76.664734%, 90.652466%)" offset="0.4375"/><stop stop-opacity="1" stop-color="rgb(4.969788%, 76.457214%, 90.646362%)" offset="0.445312"/><stop stop-opacity="1" stop-color="rgb(4.960632%, 76.249695%, 90.640259%)" offset="0.453125"/><stop stop-opacity="1" stop-color="rgb(4.949951%, 76.042175%, 90.634155%)" offset="0.460938"/><stop stop-opacity="1" stop-color="rgb(4.940796%, 75.834656%, 90.626526%)" offset="0.46875"/><stop stop-opacity="1" stop-color="rgb(4.931641%, 75.62561%, 90.620422%)" offset="0.476562"/><stop stop-opacity="1" stop-color="rgb(4.922485%, 75.418091%, 90.614319%)" offset="0.484375"/><stop stop-opacity="1" stop-color="rgb(4.91333%, 75.210571%, 90.608215%)" offset="0.492188"/><stop stop-opacity="1" stop-color="rgb(4.904175%, 75.003052%, 90.602112%)" offset="0.5"/><stop stop-opacity="1" stop-color="rgb(4.89502%, 74.795532%, 90.596008%)" offset="0.507812"/><stop stop-opacity="1" stop-color="rgb(4.884338%, 74.586487%, 90.589905%)" offset="0.515625"/><stop stop-opacity="1" stop-color="rgb(4.875183%, 74.378967%, 90.583801%)" offset="0.523438"/><stop stop-opacity="1" stop-color="rgb(4.866028%, 74.171448%, 90.577698%)" offset="0.53125"/><stop stop-opacity="1" stop-color="rgb(4.856873%, 73.963928%, 90.571594%)" offset="0.539062"/><stop stop-opacity="1" stop-color="rgb(4.847717%, 73.756409%, 90.565491%)" offset="0.546875"/><stop stop-opacity="1" stop-color="rgb(4.838562%, 73.548889%, 90.557861%)" offset="0.554688"/><stop stop-opacity="1" stop-color="rgb(4.829407%, 73.339844%, 90.551758%)" offset="0.5625"/><stop stop-opacity="1" stop-color="rgb(4.818726%, 73.132324%, 90.545654%)" offset="0.570312"/><stop stop-opacity="1" stop-color="rgb(4.80957%, 72.924805%, 90.539551%)" offset="0.578125"/><stop stop-opacity="1" stop-color="rgb(4.800415%, 72.717285%, 90.533447%)" offset="0.585938"/><stop stop-opacity="1" stop-color="rgb(4.79126%, 72.509766%, 90.527344%)" offset="0.59375"/><stop stop-opacity="1" stop-color="rgb(4.782104%, 72.30072%, 90.52124%)" offset="0.601562"/><stop stop-opacity="1" stop-color="rgb(4.772949%, 72.093201%, 90.515137%)" offset="0.609375"/><stop stop-opacity="1" stop-color="rgb(4.763794%, 71.885681%, 90.509033%)" offset="0.617188"/><stop stop-opacity="1" stop-color="rgb(4.753113%, 71.678162%, 90.50293%)" offset="0.625"/><stop stop-opacity="1" stop-color="rgb(4.743958%, 71.470642%, 90.4953%)" offset="0.632812"/><stop stop-opacity="1" stop-color="rgb(4.734802%, 71.261597%, 90.489197%)" offset="0.640625"/><stop stop-opacity="1" stop-color="rgb(4.725647%, 71.054077%, 90.483093%)" offset="0.648438"/><stop stop-opacity="1" stop-color="rgb(4.716492%, 70.846558%, 90.47699%)" offset="0.65625"/><stop stop-opacity="1" stop-color="rgb(4.707336%, 70.639038%, 90.470886%)" offset="0.664062"/><stop stop-opacity="1" stop-color="rgb(4.698181%, 70.431519%, 90.464783%)" offset="0.671875"/><stop stop-opacity="1" stop-color="rgb(4.6875%, 70.222473%, 90.458679%)" offset="0.679688"/><stop stop-opacity="1" stop-color="rgb(4.678345%, 70.014954%, 90.452576%)" offset="0.6875"/><stop stop-opacity="1" stop-color="rgb(4.669189%, 69.807434%, 90.446472%)" offset="0.695313"/><stop stop-opacity="1" stop-color="rgb(4.660034%, 69.599915%, 90.440369%)" offset="0.703125"/><stop stop-opacity="1" stop-color="rgb(4.650879%, 69.392395%, 90.434265%)" offset="0.710938"/><stop stop-opacity="1" stop-color="rgb(4.641724%, 69.184875%, 90.426636%)" offset="0.71875"/><stop stop-opacity="1" stop-color="rgb(4.632568%, 68.97583%, 90.420532%)" offset="0.726562"/><stop stop-opacity="1" stop-color="rgb(4.621887%, 68.768311%, 90.414429%)" offset="0.734375"/><stop stop-opacity="1" stop-color="rgb(4.612732%, 68.560791%, 90.408325%)" offset="0.742188"/><stop stop-opacity="1" stop-color="rgb(4.603577%, 68.353271%, 90.402222%)" offset="0.75"/><stop stop-opacity="1" stop-color="rgb(4.594421%, 68.145752%, 90.396118%)" offset="0.757812"/><stop stop-opacity="1" stop-color="rgb(4.585266%, 67.936707%, 90.390015%)" offset="0.765625"/><stop stop-opacity="1" stop-color="rgb(4.576111%, 67.729187%, 90.383911%)" offset="0.773438"/><stop stop-opacity="1" stop-color="rgb(4.566956%, 67.521667%, 90.377808%)" offset="0.78125"/><stop stop-opacity="1" stop-color="rgb(4.556274%, 67.314148%, 90.371704%)" offset="0.789062"/><stop stop-opacity="1" stop-color="rgb(4.547119%, 67.106628%, 90.364075%)" offset="0.796875"/><stop stop-opacity="1" stop-color="rgb(4.537964%, 66.897583%, 90.357971%)" offset="0.804688"/><stop stop-opacity="1" stop-color="rgb(4.528809%, 66.690063%, 90.351868%)" offset="0.8125"/><stop stop-opacity="1" stop-color="rgb(4.519653%, 66.482544%, 90.345764%)" offset="0.820312"/><stop stop-opacity="1" stop-color="rgb(4.510498%, 66.275024%, 90.339661%)" offset="0.828125"/><stop stop-opacity="1" stop-color="rgb(4.501343%, 66.067505%, 90.333557%)" offset="0.835938"/><stop stop-opacity="1" stop-color="rgb(4.490662%, 65.858459%, 90.327454%)" offset="0.84375"/><stop stop-opacity="1" stop-color="rgb(4.481506%, 65.65094%, 90.32135%)" offset="0.851562"/><stop stop-opacity="1" stop-color="rgb(4.472351%, 65.44342%, 90.315247%)" offset="0.859375"/><stop stop-opacity="1" stop-color="rgb(4.463196%, 65.235901%, 90.309143%)" offset="0.867188"/><stop stop-opacity="1" stop-color="rgb(4.454041%, 65.028381%, 90.30304%)" offset="0.875"/><stop stop-opacity="1" stop-color="rgb(4.444885%, 64.820862%, 90.29541%)" offset="0.882813"/><stop stop-opacity="1" stop-color="rgb(4.43573%, 64.611816%, 90.289307%)" offset="0.890625"/><stop stop-opacity="1" stop-color="rgb(4.425049%, 64.404297%, 90.283203%)" offset="0.898438"/><stop stop-opacity="1" stop-color="rgb(4.415894%, 64.196777%, 90.2771%)" offset="0.90625"/><stop stop-opacity="1" stop-color="rgb(4.406738%, 63.989258%, 90.270996%)" offset="0.914062"/><stop stop-opacity="1" stop-color="rgb(4.397583%, 63.781738%, 90.264893%)" offset="0.921875"/><stop stop-opacity="1" stop-color="rgb(4.388428%, 63.572693%, 90.258789%)" offset="0.929688"/><stop stop-opacity="1" stop-color="rgb(4.379272%, 63.365173%, 90.252686%)" offset="0.9375"/><stop stop-opacity="1" stop-color="rgb(4.370117%, 63.157654%, 90.246582%)" offset="0.945312"/><stop stop-opacity="1" stop-color="rgb(4.359436%, 62.950134%, 90.240479%)" offset="0.953125"/><stop stop-opacity="1" stop-color="rgb(4.350281%, 62.742615%, 90.232849%)" offset="0.960938"/><stop stop-opacity="1" stop-color="rgb(4.341125%, 62.533569%, 90.226746%)" offset="0.96875"/><stop stop-opacity="1" stop-color="rgb(4.33197%, 62.32605%, 90.220642%)" offset="0.976562"/><stop stop-opacity="1" stop-color="rgb(4.322815%, 62.11853%, 90.214539%)" offset="0.984375"/><stop stop-opacity="1" stop-color="rgb(4.31366%, 61.911011%, 90.208435%)" offset="0.992188"/><stop stop-opacity="1" stop-color="rgb(4.304504%, 61.703491%, 90.202332%)" offset="1"/></linearGradient></defs><g clip-path="url(#479782f24a)"><g clip-path="url(#851b6e184f)"><path fill="url(#eb34de49f6)" d="M 8.316406 15.023438 L 8.316406 124.761719 L 64.726562 124.761719 L 64.726562 15.023438 Z M 8.316406 15.023438 " fill-rule="nonzero"/></g></g><g clip-path="url(#42035aa5f6)"><g clip-path="url(#e8ea4d6b19)"><path fill="url(#ba19860b97)" d="M 69.703125 15 L 69.703125 124.632812 L 124.351562 124.632812 L 124.351562 15 Z M 69.703125 15 " fill-rule="nonzero"/></g></g><g fill="#ffffff" fill-opacity="1"><g transform="translate(135.039312, 72.077745)"><g><path d="M 15.6875 -34.96875 C 19.363281 -34.96875 22.59375 -34.25 25.375 -32.8125 C 28.164062 -31.382812 30.320312 -29.34375 31.84375 -26.6875 C 33.363281 -24.03125 34.125 -20.945312 34.125 -17.4375 C 34.125 -13.925781 33.363281 -10.859375 31.84375 -8.234375 C 30.320312 -5.617188 28.164062 -3.59375 25.375 -2.15625 C 22.59375 -0.71875 19.363281 0 15.6875 0 L 3.453125 0 L 3.453125 -34.96875 Z M 15.4375 -5.96875 C 19.113281 -5.96875 21.953125 -6.96875 23.953125 -8.96875 C 25.953125 -10.96875 26.953125 -13.789062 26.953125 -17.4375 C 26.953125 -21.082031 25.953125 -23.929688 23.953125 -25.984375 C 21.953125 -28.035156 19.113281 -29.0625 15.4375 -29.0625 L 10.46875 -29.0625 L 10.46875 -5.96875 Z M 15.4375 -5.96875 "/></g></g></g><g fill="#ffffff" fill-opacity="1"><g transform="translate(170.967765, 72.077745)"><g><path d="M 24.90625 -6.671875 L 10.96875 -6.671875 L 8.671875 0 L 1.296875 0 L 13.875 -35.03125 L 22.046875 -35.03125 L 34.625 0 L 27.203125 0 Z M 23 -12.28125 L 17.9375 -26.90625 L 12.875 -12.28125 Z M 23 -12.28125 "/></g></g></g><g fill="#ffffff" fill-opacity="1"><g transform="translate(206.846105, 72.077745)"><g><path d="M 33.375 0 L 26.359375 0 L 10.46875 -24 L 10.46875 0 L 3.453125 0 L 3.453125 -35.03125 L 10.46875 -35.03125 L 26.359375 -10.96875 L 26.359375 -35.03125 L 33.375 -35.03125 Z M 33.375 0 "/></g></g></g><g fill="#ffffff" fill-opacity="1"><g transform="translate(243.676523, 72.077745)"><g><path d="M 10.46875 -34.96875 L 10.46875 0 L 3.453125 0 L 3.453125 -34.96875 Z M 10.46875 -34.96875 "/></g></g></g><g fill="#ffffff" fill-opacity="1"><g transform="translate(257.60694, 72.077745)"><g><path d="M 15.53125 0.34375 C 13.09375 0.34375 10.894531 -0.0703125 8.9375 -0.90625 C 6.988281 -1.738281 5.445312 -2.9375 4.3125 -4.5 C 3.175781 -6.070312 2.59375 -7.929688 2.5625 -10.078125 L 10.078125 -10.078125 C 10.171875 -8.640625 10.675781 -7.5 11.59375 -6.65625 C 12.519531 -5.820312 13.785156 -5.40625 15.390625 -5.40625 C 17.023438 -5.40625 18.304688 -5.796875 19.234375 -6.578125 C 20.171875 -7.367188 20.640625 -8.398438 20.640625 -9.671875 C 20.640625 -10.703125 20.320312 -11.550781 19.6875 -12.21875 C 19.050781 -12.894531 18.257812 -13.421875 17.3125 -13.796875 C 16.363281 -14.179688 15.050781 -14.609375 13.375 -15.078125 C 11.101562 -15.742188 9.257812 -16.40625 7.84375 -17.0625 C 6.425781 -17.71875 5.207031 -18.703125 4.1875 -20.015625 C 3.164062 -21.335938 2.65625 -23.101562 2.65625 -25.3125 C 2.65625 -27.375 3.171875 -29.171875 4.203125 -30.703125 C 5.242188 -32.242188 6.695312 -33.425781 8.5625 -34.25 C 10.4375 -35.070312 12.578125 -35.484375 14.984375 -35.484375 C 18.585938 -35.484375 21.515625 -34.601562 23.765625 -32.84375 C 26.023438 -31.09375 27.273438 -28.644531 27.515625 -25.5 L 19.796875 -25.5 C 19.722656 -26.707031 19.210938 -27.703125 18.265625 -28.484375 C 17.316406 -29.273438 16.054688 -29.671875 14.484375 -29.671875 C 13.109375 -29.671875 12.007812 -29.316406 11.1875 -28.609375 C 10.375 -27.910156 9.96875 -26.894531 9.96875 -25.5625 C 9.96875 -24.625 10.273438 -23.84375 10.890625 -23.21875 C 11.515625 -22.601562 12.285156 -22.101562 13.203125 -21.71875 C 14.117188 -21.332031 15.414062 -20.890625 17.09375 -20.390625 C 19.363281 -19.722656 21.210938 -19.054688 22.640625 -18.390625 C 24.078125 -17.722656 25.3125 -16.71875 26.34375 -15.375 C 27.382812 -14.039062 27.90625 -12.289062 27.90625 -10.125 C 27.90625 -8.25 27.421875 -6.507812 26.453125 -4.90625 C 25.484375 -3.300781 24.0625 -2.023438 22.1875 -1.078125 C 20.320312 -0.128906 18.101562 0.34375 15.53125 0.34375 Z M 15.53125 0.34375 "/></g></g></g><g fill="#ffffff" fill-opacity="1"><g transform="translate(288.12358, 72.077745)"><g><path d="M 32.46875 -34.96875 L 32.46875 0 L 25.453125 0 L 25.453125 -14.875 L 10.46875 -14.875 L 10.46875 0 L 3.453125 0 L 3.453125 -34.96875 L 10.46875 -34.96875 L 10.46875 -20.59375 L 25.453125 -20.59375 L 25.453125 -34.96875 Z M 32.46875 -34.96875 "/></g></g></g><g fill="#0ee0e8" fill-opacity="1"><g transform="translate(145.129257, 108.855816)"><g><path d="M 7.421875 -17.578125 C 9.335938 -17.578125 10.992188 -17.21875 12.390625 -16.5 C 13.796875 -15.789062 14.875 -14.769531 15.625 -13.4375 C 16.375 -12.113281 16.75 -10.550781 16.75 -8.75 C 16.75 -6.945312 16.375 -5.382812 15.625 -4.0625 C 14.875 -2.75 13.796875 -1.742188 12.390625 -1.046875 C 10.992188 -0.347656 9.335938 0 7.421875 0 L 1.9375 0 L 1.9375 -17.578125 Z M 7.421875 -1.890625 C 9.679688 -1.890625 11.410156 -2.488281 12.609375 -3.6875 C 13.804688 -4.894531 14.40625 -6.582031 14.40625 -8.75 C 14.40625 -10.9375 13.800781 -12.644531 12.59375 -13.875 C 11.394531 -15.101562 9.671875 -15.71875 7.421875 -15.71875 L 4.234375 -15.71875 L 4.234375 -1.890625 Z M 7.421875 -1.890625 "/></g></g></g><g fill="#0ee0e8" fill-opacity="1"><g transform="translate(183.136603, 108.855816)"><g><path d="M 14.546875 -7.4375 C 14.546875 -7 14.519531 -6.535156 14.46875 -6.046875 L 3.4375 -6.046875 C 3.519531 -4.691406 3.984375 -3.628906 4.828125 -2.859375 C 5.679688 -2.097656 6.710938 -1.71875 7.921875 -1.71875 C 8.910156 -1.71875 9.738281 -1.945312 10.40625 -2.40625 C 11.070312 -2.875 11.535156 -3.492188 11.796875 -4.265625 L 14.28125 -4.265625 C 13.90625 -2.929688 13.160156 -1.847656 12.046875 -1.015625 C 10.941406 -0.179688 9.566406 0.234375 7.921875 0.234375 C 6.609375 0.234375 5.429688 -0.0546875 4.390625 -0.640625 C 3.359375 -1.234375 2.546875 -2.070312 1.953125 -3.15625 C 1.367188 -4.25 1.078125 -5.507812 1.078125 -6.9375 C 1.078125 -8.363281 1.363281 -9.613281 1.9375 -10.6875 C 2.507812 -11.769531 3.3125 -12.597656 4.34375 -13.171875 C 5.382812 -13.753906 6.578125 -14.046875 7.921875 -14.046875 C 9.234375 -14.046875 10.390625 -13.757812 11.390625 -13.1875 C 12.398438 -12.613281 13.175781 -11.828125 13.71875 -10.828125 C 14.269531 -9.828125 14.546875 -8.695312 14.546875 -7.4375 Z M 12.1875 -7.921875 C 12.1875 -8.796875 11.988281 -9.546875 11.59375 -10.171875 C 11.207031 -10.804688 10.679688 -11.285156 10.015625 -11.609375 C 9.359375 -11.941406 8.625 -12.109375 7.8125 -12.109375 C 6.65625 -12.109375 5.664062 -11.738281 4.84375 -11 C 4.03125 -10.257812 3.566406 -9.234375 3.453125 -7.921875 Z M 12.1875 -7.921875 "/></g></g></g><g fill="#0ee0e8" fill-opacity="1"><g transform="translate(218.950177, 108.855816)"><g><path d="M 7.09375 -2.125 L 11.375 -13.8125 L 13.8125 -13.8125 L 8.390625 0 L 5.71875 0 L 0.296875 -13.8125 L 2.78125 -13.8125 Z M 7.09375 -2.125 "/></g></g></g><g fill="#0ee0e8" fill-opacity="1"><g transform="translate(253.276034, 108.855816)"><g><path d="M 15.484375 -17.578125 L 15.484375 0 L 13.1875 0 L 13.1875 -7.96875 L 4.234375 -7.96875 L 4.234375 0 L 1.9375 0 L 1.9375 -17.578125 L 4.234375 -17.578125 L 4.234375 -9.859375 L 13.1875 -9.859375 L 13.1875 -17.578125 Z M 15.484375 -17.578125 "/></g></g></g><g fill="#0ee0e8" fill-opacity="1"><g transform="translate(290.905136, 108.855816)"><g><path d="M 14.203125 -13.8125 L 14.203125 0 L 11.90625 0 L 11.90625 -2.046875 C 11.46875 -1.335938 10.859375 -0.785156 10.078125 -0.390625 C 9.296875 0.00390625 8.429688 0.203125 7.484375 0.203125 C 6.410156 0.203125 5.441406 -0.0195312 4.578125 -0.46875 C 3.722656 -0.914062 3.046875 -1.582031 2.546875 -2.46875 C 2.054688 -3.363281 1.8125 -4.445312 1.8125 -5.71875 L 1.8125 -13.8125 L 4.078125 -13.8125 L 4.078125 -6.03125 C 4.078125 -4.664062 4.421875 -3.617188 5.109375 -2.890625 C 5.804688 -2.160156 6.75 -1.796875 7.9375 -1.796875 C 9.164062 -1.796875 10.132812 -2.171875 10.84375 -2.921875 C 11.550781 -3.679688 11.90625 -4.785156 11.90625 -6.234375 L 11.90625 -13.8125 Z M 14.203125 -13.8125 "/></g></g></g><g fill="#0ee0e8" fill-opacity="1"><g transform="translate(327.223026, 108.855816)"><g><path d="M 4.234375 -11.25 C 4.703125 -12.070312 5.390625 -12.742188 6.296875 -13.265625 C 7.210938 -13.785156 8.25 -14.046875 9.40625 -14.046875 C 10.644531 -14.046875 11.757812 -13.75 12.75 -13.15625 C 13.75 -12.570312 14.535156 -11.742188 15.109375 -10.671875 C 15.679688 -9.609375 15.96875 -8.367188 15.96875 -6.953125 C 15.96875 -5.566406 15.679688 -4.328125 15.109375 -3.234375 C 14.535156 -2.140625 13.75 -1.285156 12.75 -0.671875 C 11.75 -0.0664062 10.632812 0.234375 9.40625 0.234375 C 8.207031 0.234375 7.160156 -0.0234375 6.265625 -0.546875 C 5.367188 -1.078125 4.691406 -1.742188 4.234375 -2.546875 L 4.234375 0 L 1.9375 0 L 1.9375 -18.65625 L 4.234375 -18.65625 Z M 13.625 -6.953125 C 13.625 -8.003906 13.410156 -8.914062 12.984375 -9.6875 C 12.566406 -10.457031 12 -11.039062 11.28125 -11.4375 C 10.570312 -11.84375 9.785156 -12.046875 8.921875 -12.046875 C 8.085938 -12.046875 7.3125 -11.835938 6.59375 -11.421875 C 5.875 -11.015625 5.300781 -10.421875 4.875 -9.640625 C 4.445312 -8.859375 4.234375 -7.957031 4.234375 -6.9375 C 4.234375 -5.894531 4.445312 -4.984375 4.875 -4.203125 C 5.300781 -3.421875 5.875 -2.820312 6.59375 -2.40625 C 7.3125 -2 8.085938 -1.796875 8.921875 -1.796875 C 9.785156 -1.796875 10.570312 -2 11.28125 -2.40625 C 12 -2.820312 12.566406 -3.421875 12.984375 -4.203125 C 13.410156 -4.984375 13.625 -5.898438 13.625 -6.953125 Z M 13.625 -6.953125 "/></g></g></g></svg>